<svg xmlns="http://www.w3.org/2000/svg" width="3314.752" height="2823" enable-background="new 0 0 3314.752 2823" viewBox="0 0 3314.752 2823"><path fill="#00AEE0" d="m3070.237 571.508c-59.31-137.842-131.434-272.772-236.066-380.338-26.794-27.54-55.956-53.165-87.054-76.14 0-.008 0-.016 0-.024-7.5-8.616-15.086-14.401-22.762-16.075-85.256-57.727-183.382-95.322-285.718-98.678-107.652-3.53-211.602 30.169-308.71 79.064-7.613.153-15.198 4.358-22.753 11.788v.011c-31.774 16.916-62.768 35.314-92.877 54.393-128.229 81.25-248.773 177.017-388.542 236.26-295.329 125.199-642.413 73.835-938.091 198.244-308.05 129.615-513.882 435.467-605.522 756.874-71.279 249.997-83.207 511.751-82.07 770.278.899 203.471 24.139 404.4 213.496 524.337 114.904 72.785 252.746 98.375 387.341 118.043 691.688 101.135 1395.542 84.217 2092.534 30.656 163.962-12.6 342.559-33.871 457.96-151.016 103.257-104.804 130.092-261.265 144.337-407.691 54.305-558.39-3.759-1134.644-225.503-1649.986z"/><path fill="#FFB400" d="m2932.946 1919.93h-2481.609c-14.958 0-27.196 12.238-27.196 27.196v727.609c0 14.958 12.238 27.196 27.196 27.196h2481.609c14.958 0 27.196-12.238 27.196-27.196v-727.609c0-14.958-12.238-27.196-27.196-27.196z"/><g fill="#F04E23"><path d="m502.675 1983.496c.216-4.024.415-8.048.595-12.074.092-2.067-3.121-2.063-3.213 0-1.741 38.902-1.53 77.877-1.704 116.811-.174 38.937-.232 77.874-.28 116.811-.095 77.874-.278 155.749-.147 233.622.074 43.936-.11 87.872 1.305 131.787.101 3.131 4.766 3.136 4.867 0 2.507-77.803 1.338-155.783 1.282-233.622-.056-77.874.011-155.749-.337-233.622-.197-43.919.192-87.903-1.771-131.787-.092-2.059-3.306-2.071-3.213 0 .18 4.026.379 8.05.595 12.074.067 1.301 1.951 1.303 2.021-0z"/><path d="m605.921 1960.017c-1.949 43.213-1.55 86.511-1.713 129.763-.165 43.586-.114 87.174-.145 130.761-.061 86.508-.172 173.019.247 259.526.237 48.917.528 97.825 1.611 146.732.04 1.794 2.749 1.797 2.789 0 1.923-86.821 1.794-173.686 1.862-260.524.068-86.508.106-173.018-.086-259.526-.109-48.892.428-97.885-1.776-146.732-.081-1.793-2.708-1.796-2.789-0z"/><path d="m708.193 1969.387c-3.306 9.528-3.654 18.905-3.991 28.953-.346 10.309-.761 20.614-.986 30.927-.444 20.287-.79 40.564-.938 60.856-.296 40.57-.293 81.141-.356 121.712-.126 81.469-.431 162.954.079 244.422.287 45.916 1.648 91.781 2.853 137.674.116 4.397 6.72 4.405 6.836 0 1.074-40.901 2.504-81.788 2.76-122.709.254-40.571.237-81.14.226-121.712-.022-81.471.294-162.953-.301-244.422-.165-22.619-.377-45.225-.872-67.839-.255-11.645-.636-23.277-1.027-34.917-.38-11.318-.394-22.189-4.125-32.944-.027-.079-.131-.079-.158-.001z"/><path d="m816.733 1938.887c-.538 5.986-1.507 11.95-1.569 17.955-.062 5.985-.112 11.97-.162 17.955-.101 11.97-.166 23.94-.217 35.91-.101 23.608-.136 47.215-.145 70.823-.018 47.548-.05 95.095-.004 142.643.091 94.763.18 189.526.274 284.289.027 26.6.011 53.201.094 79.801.084 26.915-.659 53.975 1.701 80.798.216 2.459 3.611 2.464 3.828 0 2.1-23.866 1.599-47.872 1.673-71.82.074-23.608.081-47.215.104-70.823.047-47.548.093-95.095.139-142.643.091-94.763.191-189.526.156-284.289-.01-26.6 0-53.2-.114-79.801-.057-13.3-.101-26.6-.213-39.9-.056-6.65-.102-13.3-.171-19.95-.073-7.051-.971-13.926-1.602-20.948-.216-2.424-3.554-2.428-3.772 0z"/><path d="m930.182 1945.618c-3.359 23-1.982 46.968-2.106 70.172-.128 23.952-.121 47.903-.141 71.855-.04 47.903-.105 95.807-.119 143.71-.029 95.142.173 190.282.291 285.424.067 53.855-1.005 107.862.803 161.674.104 3.095 4.708 3.101 4.813 0 1.607-47.84.721-95.831.78-143.71.06-47.904.254-95.807.268-143.71.027-95.142.02-190.283-.059-285.424-.022-26.613.039-53.227-.103-79.839-.073-13.639-.154-27.278-.218-40.917-.062-13.075-.05-26.286-1.941-39.234-.165-1.124-2.104-1.124-2.268-.001z"/><path d="m1046.875 1955.322c-.442 3.393-1.362 6.534-1.489 9.956-.124 3.315-.125 6.64-.19 9.956-.131 6.641-.516 13.272-.606 19.912-.181 13.274-.4 26.548-.464 39.824-.063 12.943-.125 25.885-.188 38.828-.063 12.991-.861 26.775 2.607 39.424.585 2.133 3.739 2.135 4.324 0 3.384-12.339 2.673-25.754 2.612-38.429-.064-13.275-.128-26.549-.192-39.824-.063-12.944-.274-25.886-.45-38.828-.09-6.641-.469-13.271-.601-19.912-.066-3.319-.127-6.637-.19-9.956-.073-3.82-1.014-7.157-1.508-10.952-.307-2.349-3.358-2.354-3.665.001z"/><path d="m1051.372 2203.632c-3.091 14.285-1.507 29.889-1.603 44.453-.101 15.297-.131 30.591-.117 45.888.028 30.26.056 60.52.09 90.779.069 60.52.16 121.039.16 181.559 0 34.252.779 68.515 1.887 102.75.067 2.075 3.159 2.079 3.227 0 1.969-60.853 1.861-121.68 1.931-182.556.069-60.519.14-121.039.196-181.558.016-16.959.045-33.917-.068-50.876-.057-8.646-.138-17.291-.151-25.937-.012-8.26.265-16.385-1.491-24.501-.435-2.009-3.626-2.01-4.061-.001z"/><path d="m1193.059 1962.031c-3.533 10.56-2.079 23.269-2.249 34.294-.18 11.65-.18 23.307-.229 34.958-.099 23.638-.131 47.276-.196 70.915-.13 47.271-.253 94.559.077 141.829.186 26.63-.035 53.284.72 79.904.113 3.975 6.067 3.982 6.18 0 1.339-47.231.794-94.58.804-141.83.011-47.277-.047-94.552-.177-141.829-.037-13.317-.086-26.635-.206-39.952-.057-6.326-.198-12.652-.307-18.977-.112-6.495.089-13.095-1.99-19.312-.4-1.193-2.027-1.194-2.427-0z"/><path d="m1187.889 2419.726c-2.957 7.377-2.028 16.53-2.311 24.37-.312 8.624-.567 17.269-.704 25.897-.276 17.255-.186 34.537-.15 51.794.071 34.198.172 68.395.35 102.593.101 19.447-.39 39.411 1.522 58.767.378 3.827 5.582 3.835 5.961 0 1.684-17.045 1.397-34.665 1.486-51.794.09-17.265.213-34.53.266-51.794.106-34.198.121-68.395-.005-102.593-.035-9.632-.361-19.257-.622-28.885-.126-4.652-.42-9.294-.569-13.945-.159-4.948.021-9.744-1.85-14.41-.661-1.651-2.711-1.654-3.374 0z"/><path d="m1295.635 1967.061c-2.557 21.121-1.917 42.648-2.139 63.907-.222 21.298-.197 42.608-.183 63.907.028 42.604.059 85.209.089 127.813.059 85.21.113 170.418.418 255.627.172 47.917-.376 95.898 1.323 143.79.111 3.131 4.756 3.136 4.867 0 1.511-42.577 1.114-85.216 1.266-127.813.152-42.605.345-85.208.375-127.813.059-85.209.119-170.418.178-255.627.017-23.965-.066-47.93-.133-71.895-.066-23.853.69-48.2-2.178-71.895-.302-2.492-3.581-2.497-3.883-.001z"/><path d="m1402.2 1966.777c-3.387 9.378-2.403 20.326-2.472 30.148-.074 10.619-.186 21.237-.269 31.855-.161 20.573-.214 41.146-.244 61.72-.059 41.814-.692 83.684 1.907 125.43.168 2.707 4.042 2.712 4.211 0 2.599-41.746 1.967-83.616 1.907-125.43-.029-20.574-.083-41.146-.244-61.72-.083-10.619-.195-21.237-.269-31.855-.069-9.822.915-20.77-2.472-30.148-.363-1.009-1.69-1.01-2.055 0z"/><path d="m1401.123 2347.409c-4.772 44.922-3.134 90.642-2.873 135.796.259 44.934.864 89.866 1.359 134.798.283 25.663.266 51.25 1.678 76.885.137 2.496 3.745 2.501 3.883 0 2.489-45.177 1.829-90.557 2.327-135.796.495-44.934.916-89.861.775-134.798-.081-25.75-.218-51.284-2.938-76.885-.287-2.703-3.923-2.709-4.211 0z"/><path d="m1514.342 1971.32c-2.296 9.932-1.888 20.192-1.936 30.392-.05 10.651-.102 21.302-.152 31.953-.102 21.302-.062 42.605-.071 63.907-.018 42.937.073 85.875.117 128.812.089 85.208-.127 170.42.407 255.627.302 48.204-.352 96.623 1.659 144.789.084 2.005 3.033 2.008 3.117 0 1.775-42.531 1.151-85.25 1.527-127.813.38-42.938.414-85.873.414-128.812 0-85.209.152-170.418.241-255.627.025-23.964.055-47.931-.027-71.895-.041-11.983-.115-23.965-.172-35.948-.056-11.774.693-23.913-1.96-35.385-.361-1.563-2.802-1.564-3.164-0z"/><path d="m1628.999 1955.322c-2.243 51.094-1.685 102.255-1.752 153.391-.067 51.131-.136 102.261-.083 153.391.03 29.26-.028 58.434 1.643 87.652.159 2.777 4.161 2.782 4.32 0 2.917-51.01 1.742-102.308 1.675-153.391-.067-51.13-.081-102.261-.244-153.391-.094-29.258-.339-58.418-1.622-87.652-.111-2.532-3.826-2.537-3.937 0z"/><path d="m1629.464 2438.974c-2.423 18.425-1.988 37.037-2.011 55.579-.022 17.865-.079 35.73-.125 53.594-.094 36.43-.187 72.8 1.863 109.174.129 2.285 3.426 2.289 3.555 0 2.05-36.374 1.958-72.744 1.863-109.174-.046-17.865-.103-35.729-.125-53.594-.023-18.543.412-37.154-2.011-55.579-.255-1.929-2.755-1.933-3.009 0z"/><path d="m1763.502 1957.313c-.539 3.597-1.907 6.582-2.128 10.309-.235 3.971-.148 7.967-.217 11.943-.138 7.963-.387 15.923-.441 23.887-.054 8.003.171 15.901.444 23.887.244 7.165-.205 15.464 2.158 22.303.501 1.45 2.451 1.453 2.953 0 2.363-6.841 1.924-15.14 2.158-22.303.261-7.984.498-15.885.444-23.887-.054-7.964-.303-15.924-.441-23.887-.063-3.647-.017-7.304-.177-10.948-.182-4.155-1.569-7.307-2.168-11.304-.193-1.279-2.393-1.28-2.585 0z"/><path d="m1772.626 2114.974c-.557 17.678-2.345 35.159-3.11 52.839-.761 17.587-.561 35.239-.649 52.839-.178 35.225-.046 70.454.206 105.678.505 70.453 1.171 140.902 1.502 211.356.188 39.874-.626 79.803 1.449 119.636.145 2.778 4.175 2.783 4.32 0 1.834-35.194 1.312-70.447 1.401-105.678.089-35.225.211-70.455.566-105.678.71-70.448 1.369-140.904 1.259-211.356-.031-19.94-.141-39.882-.543-59.818-.404-20.021-2.655-39.827-3.285-59.818-.061-2.005-3.052-2.009-3.116 0z"/><path d="m1898.507 1941.235c-2.134 22.825-1.539 46.088-1.688 69-.147 22.667-.204 45.333-.263 68-.119 45.667-.103 91.333-.028 137 .15 91.333.312 182.667.294 274-.005 25.334-.032 50.667.075 76 .055 13 .11 26 .165 39 .054 12.921-.893 26.172.406 39 .455 4.494 6.544 4.503 7 0 1.135-11.208.337-22.713.385-34 .049-11.667.099-23.333.148-35 .096-22.667.12-45.333.116-68-.009-45.667-.037-91.333.038-137 .15-91.333.506-182.667.269-274-.066-25.333-.084-50.667-.249-76-.168-25.891.665-52.206-1.746-78-.296-3.161-4.626-3.167-4.922 0z"/><path d="m2021.895 1955.002c-4.234 14.707-2.999 31.04-3.129 46.277-.136 15.993 1.141 31.992 2.019 47.955.161 2.918 4.378 2.924 4.539 0 .878-15.963 2.156-31.962 2.019-47.955-.13-15.231 1.104-31.577-3.129-46.277-.328-1.144-1.99-1.145-2.319 0z"/><path d="m2022.641 2112.626c-2.36 17.71-1.751 35.972-1.971 53.814-.221 17.934-.109 35.878-.154 53.814-.089 36.208-.016 72.417.02 108.625.071 72.085.268 144.169.442 216.253.097 40.512-.308 81.096 1.39 121.58.164 3.904 5.906 3.911 6.07 0 1.503-35.841 1.271-71.762 1.357-107.628.087-36.208.174-72.417.261-108.625.173-72.083.446-144.17.268-216.253-.049-19.931-.098-39.862-.148-59.794-.05-20.423.689-41.519-2.012-61.787-.472-3.54-5.05-3.548-5.523.001z"/><path d="m2122.917 2654.974c-.086 2.129-.172 4.259-.258 6.388-.06 1.496 2.373 1.874 2.654.359 2.685-14.474 2.206-29.216 2.392-43.906.193-15.176.27-30.349.307-45.527.074-30.376.215-60.752-2.006-91.053-.188-2.565-3.804-2.57-3.992 0-2.221 30.301-2.08 60.677-2.006 91.053.037 15.177.114 30.35.307 45.527.187 14.691-.293 29.432 2.392 43.906.885-.12 1.77-.24 2.654-.359-.086-2.129-.172-4.259-.258-6.388-.055-1.407-2.129-1.409-2.186 0z"/><path d="m2127.519 2420.511c.496-2.867 1.718-5.491 2.176-8.302.515-3.167.143-6.783.219-9.978.157-6.652.274-13.304.403-19.957.252-12.969.207-25.945.267-38.915.12-26.276.275-52.552.305-78.828.06-52.219.119-104.439.179-156.659.017-14.631.203-29.274.031-43.904-.171-14.506-.378-29.157-2.551-43.51-.328-2.167-4.049-2.168-4.377 0-3.851 25.435-2.561 51.771-2.532 77.436.03 26.276.06 52.552.09 78.828.06 52.22.122 104.439.36 156.659.067 14.633.004 29.273.215 43.904.106 7.317.265 14.636.426 21.952.081 3.658.134 7.32.252 10.976.116 3.607 1.599 6.729 2.217 10.298.198 1.148 2.121 1.149 2.32 0z"/><path d="m2242.684 1950.626c-.379 7.039-1.62 13.994-1.897 21s-.527 13.988-.544 21c-.035 14-.114 28-.212 42-.197 27.999-.115 56-.119 84-.009 56.333-.099 112.667.139 169 .134 31.684.158 63.335 1.294 95 .111 3.095 4.701 3.101 4.813 0 2.007-55.945 1.458-112.021 1.449-168-.009-56.329.339-112.672-.057-169-.11-15.667-.235-31.333-.274-47-.02-8.013-.124-15.993-.441-24-.318-8.038-1.583-15.946-2.016-24-.076-1.371-2.061-1.374-2.135-0z"/><path d="m2244.649 2460.104c-.356 4.686-1.474 9.185-1.821 13.872-.342 4.614-.399 9.249-.543 13.872-.267 8.589-.497 17.168-.578 25.761-.172 18.164-.259 36.331-.226 54.495.032 17.833.099 35.675.438 53.505.343 18.072-.356 36.524 1.691 54.495.364 3.194 4.612 3.2 4.977 0 2.011-17.649 1.335-35.758 1.672-53.505.345-18.16.424-36.331.457-54.495.032-17.834-.048-35.671-.217-53.505-.085-8.923-.31-17.833-.587-26.752-.144-4.624-.208-9.257-.543-13.872-.34-4.684-1.465-9.188-1.821-13.872-.142-1.861-2.757-1.865-2.899.001z"/><path d="m2355.352 1962.365c-.254 10.661-1.167 21.139-1.805 31.762-.594 9.878-.35 19.884-.524 29.777-.355 20.172-.094 40.371-.13 60.547-.073 40.701-.257 81.405 1.201 122.087.108 3.025 4.594 3.03 4.703 0 1.458-40.682 1.274-81.385 1.201-122.087-.036-20.176.225-40.375-.13-60.547-.174-9.894.07-19.9-.524-29.777-.639-10.623-1.551-21.101-1.805-31.762-.033-1.407-2.153-1.409-2.187 0z"/><path d="m2358.872 2295.757c-3.177 24.706-2.78 49.843-2.899 74.745-.119 24.916-.183 49.829-.163 74.745.041 49.829-.053 99.661.184 149.49.133 27.94 1.152 55.799 2.249 83.715.146 3.728 5.65 3.735 5.797 0 3.912-99.549 2.787-199.363 2.313-298.981-.133-27.857.614-56.07-2.942-83.715-.374-2.911-4.164-2.917-4.539.001z"/><path d="m2470.804 1955.133c-1.096 7.796-2.414 15.154-2.636 23.056-.232 8.283-.199 16.57-.271 24.856-.141 16.24-.257 32.476-.219 48.717.076 32.73-.928 65.774 1.515 98.429.221 2.952 4.372 2.958 4.594 0 2.444-32.654 1.439-65.699 1.515-98.429.038-16.241-.078-32.477-.219-48.717-.069-7.954-.02-15.911-.243-23.862-.231-8.248-1.52-15.914-2.664-24.051-.096-.678-1.277-.679-1.372.001z"/><path d="m2486 2238.878c-4.061 13.115-2.825 28.707-2.896 42.372-.072 13.947-.088 27.894-.12 41.841-.064 28.225.151 56.453.235 84.678.17 56.784.524 113.568.556 170.352.018 31.868-.565 63.866 2.235 95.636.217 2.459 3.611 2.464 3.828 0 2.51-28.473 2.213-57.111 2.229-85.674.016-28.226.131-56.452.23-84.678.2-56.784.385-113.568.555-170.352.048-15.939-.052-31.879-.097-47.818-.022-7.639-.17-15.275-.304-22.913-.136-7.718-.323-16.08-2.603-23.444-.586-1.895-3.261-1.898-3.848 0z"/><path d="m2583.416 1950.626c-2.494 42.53-2.601 85.142-2.688 127.745-.086 42.25-.083 84.497.003 126.747.172 84.831.448 169.661.815 254.491.207 47.925.414 95.81 1.979 143.713.126 3.869 5.889 3.876 6.016 0 2.77-84.781 2.091-169.672 2.458-254.491.367-84.828.55-169.663.372-254.491-.1-47.914.085-95.876-2.721-143.713-.235-4.009-5.999-4.016-6.234-.001z"/><path d="m2718.011 2044.589c.064 0 .064-.1 0-.1s-.064.1 0 .1z"/><path d="m2697.937 1954.965c-1.074 7.506-2.118 14.629-2.171 22.252-.051 7.299-.113 14.597-.189 21.896-.164 15.593-.241 31.185-.311 46.778-.138 30.842-.334 61.809 2.158 92.561.188 2.319 3.421 2.323 3.609 0 2.493-30.75 2.297-61.719 2.158-92.561-.068-15.261-.139-30.522-.3-45.783-.081-7.63-.152-15.26-.2-22.891-.048-7.624-1.097-14.744-2.171-22.252-.182-1.279-2.4-1.28-2.583 0z"/><path d="m2691.501 2229.181c-2.323 14.874-2.168 29.774-2.306 44.819-.134 14.659-.069 29.323-.094 43.983-.051 29.989.004 59.977.036 89.966.064 59.311.128 118.622.192 177.932.018 16.662.036 33.32.21 49.981.182 17.398 1.282 34.621 2.423 51.98.217 3.304 4.923 3.31 5.141 0 1.008-15.341 2.2-30.609 2.36-45.983.153-14.662.244-29.321.26-43.983.032-29.989.064-59.977.097-89.966.064-59.31.265-118.622.164-177.932-.029-16.66-.057-33.321-.085-49.981-.029-16.983.288-34.029-2.334-50.817-.469-3.001-5.595-3.002-6.064.001z"/><path d="m2809.627 1962.365c-2.31 21.897-2.406 43.985-2.596 65.983-.19 21.995-.313 43.987-.337 65.983-.048 43.656.047 87.311.142 130.966.19 87.644 1.624 175.288 2.075 262.932.127 24.66.254 49.321.381 73.981.127 24.601-.705 49.418.69 73.981.142 2.496 3.741 2.501 3.883 0 1.245-21.912.546-44.037.65-65.983.104-21.994.226-43.989.339-65.983.225-43.655.314-87.313.793-130.966.962-87.646 1.621-175.28 1.524-262.932-.027-24.662-.073-49.32-.285-73.981-.213-24.656-.075-49.433-2.665-73.981-.311-2.949-4.282-2.955-4.594 0z"/><path d="m2890.3 1973.704c-2.679 10.603-2.151 21.465-2.3 32.347-.15 10.982-.256 21.963-.33 32.945-.149 22.297-.179 44.592-.202 66.889-.044 44.26-.03 88.52.039 132.78.139 88.853.278 177.705.224 266.557-.015 24.626-.03 49.252-.045 73.877-.015 25.234-1.305 50.783 1.466 75.874.368 3.334 4.826 3.341 5.195 0 2.448-22.169 1.485-44.595 1.472-66.889-.014-22.296-.027-44.593-.041-66.889-.027-44.26-.089-88.52-.02-132.78.139-88.852.378-177.705.289-266.558-.025-24.626.007-49.252-.157-73.877-.085-12.646-.163-25.292-.335-37.937-.166-12.133.633-24.517-2.355-36.34-.361-1.43-2.538-1.432-2.9.001z"/></g><path fill="#FFB400" d="m2920.142 1838.93-2485 2c-7.365 0-19 10-23 18l-11 20.609c0 7.365 6.026 13.391 13.391 13.391h2550.217c7.365 0 13.391-6.026 13.391-13.391l-14-30.609c-1.06-2.293-11.634-6.113-14-7-7.999-3-23.923-3-29.999-3z"/><path fill="#F04E23" d="m2954.555 1945.93h-2527.826c-15.723 0-28.587-12.864-28.587-28.587v-24.826c0-15.723 12.864-28.587 28.587-28.587h2527.826c15.723 0 28.587 12.864 28.587 28.587v24.826c0 15.723-12.864 28.587-28.587 28.587z"/><path fill="#FFB400" d="m1373.281 1410h-956.261c-9.553 0-17.37-7.816-17.37-17.37v-1.261c0-9.553 7.816-17.37 17.37-17.37h956.261c9.553 0 17.37 7.816 17.37 17.37v1.261c-.001 9.554-7.817 17.37-17.37 17.37z"/><path fill="#FFB400" d="m1373.281 1022h-956.261c-9.553 0-17.37-7.816-17.37-17.37v-1.261c0-9.553 7.816-17.37 17.37-17.37h956.261c9.553 0 17.37 7.816 17.37 17.37v1.261c-.001 9.554-7.817 17.37-17.37 17.37z"/><path fill="#FFB400" d="m2941.281 1412h-956.261c-9.553 0-17.37-7.816-17.37-17.37v-1.261c0-9.553 7.816-17.37 17.37-17.37h956.261c9.553 0 17.37 7.816 17.37 17.37v1.261c-.001 9.554-7.817 17.37-17.37 17.37z"/><path fill="#FFB400" d="m2941.281 1024h-956.261c-9.553 0-17.37-7.816-17.37-17.37v-1.261c0-9.553 7.816-17.37 17.37-17.37h956.261c9.553 0 17.37 7.816 17.37 17.37v1.261c-.001 9.554-7.817 17.37-17.37 17.37z"/><path fill="#F04E23" d="m1892.063 1024h-429.826c-10.223 0-18.587 8.364-18.587 18.587v595.826c0 10.223 8.364 18.587 18.587 18.587h429.826c10.223 0 18.587-8.364 18.587-18.587v-595.826c0-10.223-8.364-18.587-18.587-18.587z"/><path fill="#04294F" d="m1875.433 1643h-394.565c-11.12 0-20.217-9.098-20.217-20.217v-565.565c0-11.12 9.098-20.217 20.217-20.217h394.565c11.12 0 20.217 9.098 20.217 20.217v565.565c0 11.119-9.098 20.217-20.217 20.217z"/><path fill="#FFF" d="m1830.911 1153h-300.522c-11.406 0-20.739-9.333-20.739-20.739v-36.522c0-11.406 9.333-20.739 20.739-20.739h300.522c11.406 0 20.739 9.333 20.739 20.739v36.522c0 11.406-9.332 20.739-20.739 20.739z"/><path fill="#FFF" d="m1697.65 1260h-179c-4.95 0-9-4.05-9-9 0-4.95 4.05-9 9-9h179c4.95 0 9 4.05 9 9 0 4.95-4.05 9-9 9z"/><path fill="#FFF" d="m1837.65 1260h-90c-4.95 0-9-4.05-9-9 0-4.95 4.05-9 9-9h90c4.95 0 9 4.05 9 9 0 4.95-4.05 9-9 9z"/><path fill="#FFF" d="m1728.65 1304h-209c-5.5 0-10-4.5-10-10 0-5.5 4.5-10 10-10h209c5.5 0 10 4.5 10 10 0 5.5-4.5 10-10 10z"/><path fill="#FFF" d="m1836.65 1304h-55c-5.5 0-10-4.5-10-10 0-5.5 4.5-10 10-10h55c5.5 0 10 4.5 10 10 0 5.5-4.5 10-10 10z"/><path fill="#FFF" d="m1654.781 1349h-135.261c-5.428 0-9.87-4.441-9.87-9.87v-1.261c0-5.428 4.441-9.87 9.87-9.87h135.261c5.428 0 9.87 4.441 9.87 9.87v1.261c-.001 5.429-4.442 9.87-9.87 9.87z"/><path fill="#FFF" d="m1836.15 1349h-119c-5.775 0-10.5-4.725-10.5-10.5 0-5.775 4.725-10.5 10.5-10.5h119c5.775 0 10.5 4.725 10.5 10.5 0 5.775-4.725 10.5-10.5 10.5z"/><path fill="#04294F" d="m1868.454 948s-92.63 38-188.804 38c-96.13 0-195.804-38-195.804-38-18.196-10-41.196-18.538-41.196-41.196v-63.608c0-22.658 18.538-41.196 41.196-41.196h384.609c22.658 0 41.196 18.538 41.196 41.196v63.608c-.001 22.658-15.001 32.196-41.197 41.196z"/><circle cx="1466.65" cy="914" r="13" fill="#FFB400"/><circle cx="1459.65" cy="884" r="13" fill="#FFB400"/><circle cx="1459.65" cy="855" r="13" fill="#FFB400"/><circle cx="1470.65" cy="825" r="13" fill="#FFB400"/><circle cx="1499.65" cy="820" r="13" fill="#FFB400"/><circle cx="1529.65" cy="820" r="13" fill="#FFB400"/><circle cx="1560.65" cy="820" r="13" fill="#FFB400"/><circle cx="1591.65" cy="820" r="13" fill="#FFB400"/><circle cx="1625.65" cy="820" r="13" fill="#FFB400"/><circle cx="1659.65" cy="820" r="13" fill="#FFB400"/><circle cx="1693.65" cy="820" r="13" fill="#FFB400"/><circle cx="1726.65" cy="820" r="13" fill="#FFB400"/><circle cx="1492.65" cy="931" r="13" fill="#FFB400"/><circle cx="1521.65" cy="942" r="13" fill="#FFB400"/><circle cx="1551.65" cy="951" r="13" fill="#FFB400"/><circle cx="1612.65" cy="964" r="13" fill="#FFB400"/><circle cx="1676.65" cy="970" r="13" fill="#FFB400"/><circle cx="1706.65" cy="970" r="13" fill="#FFB400"/><circle cx="1739.65" cy="966" r="13" fill="#FFB400"/><circle cx="1768.65" cy="959" r="13" fill="#FFB400"/><circle cx="1801.65" cy="951" r="13" fill="#FFB400"/><circle cx="1833.65" cy="942" r="13" fill="#FFB400"/><circle cx="1890.65" cy="914" r="13" fill="#FFB400"/><circle cx="1864.65" cy="931" r="13" fill="#FFB400"/><circle cx="1644.65" cy="968" r="13" fill="#FFB400"/><circle cx="1581.65" cy="959" r="13" fill="#FFB400"/><circle cx="1890.65" cy="884" r="13" fill="#FFB400"/><circle cx="1890.65" cy="855" r="13" fill="#FFB400"/><circle cx="1879.65" cy="825" r="13" fill="#FFB400"/><circle cx="1850.65" cy="820" r="13" fill="#FFB400"/><circle cx="1820.65" cy="820" r="13" fill="#FFB400"/><circle cx="1789.65" cy="820" r="13" fill="#FFB400"/><circle cx="1758.65" cy="820" r="13" fill="#FFB400"/><ellipse cx="1080.642" cy="1370.93" fill="#04294F" rx="79.5" ry="10"/><ellipse cx="1081.142" cy="1103.43" fill="#04294F" rx="25" ry="8.5"/><path fill="#04294F" d="m1056.142 1101.93v53.965c0 3.728-.697 7.421-2.083 10.882-1.916 4.785-5.476 12.808-11.917 25.152-12 23-18.517 30.224-41 78-8 17 0 101 0 101h80v-269h-25z"/><path fill="#04294F" d="m1106.142 1101.93v53.965c0 3.728.697 7.421 2.083 10.882 1.916 4.785 5.476 12.808 11.917 25.152 12 23 18.517 30.224 41 78 8 17 0 101 0 101h-80v-269h25z"/><path fill="#FFB400" d="m1090.142 1350.93h-16c-6.6 0-12-5.4-12-12v-149c0-6.6 5.4-12 12-12h16c6.6 0 12 5.4 12 12v149c0 6.6-5.4 12-12 12z"/><path fill="#FFF" d="m1090.142 1241.93h-16c-6.6 0-12-5.4-12-12v-40c0-6.6 5.4-12 12-12h16c6.6 0 12 5.4 12 12v40c0 6.6-5.4 12-12 12z"/><path fill="#04294F" d="m1095.642 1193.93h-26c-1.375 0-2.5-1.125-2.5-2.5 0-1.375 1.125-2.5 2.5-2.5h26c1.375 0 2.5 1.125 2.5 2.5 0 1.375-1.125 2.5-2.5 2.5z"/><path fill="#04294F" d="m1079.642 1209.93h-10c-1.375 0-2.5-1.125-2.5-2.5 0-1.375 1.125-2.5 2.5-2.5h10c1.375 0 2.5 1.125 2.5 2.5 0 1.375-1.125 2.5-2.5 2.5z"/><path fill="#04294F" d="m1097.642 1209.93h-5c-1.375 0-2.5-1.125-2.5-2.5 0-1.375 1.125-2.5 2.5-2.5h5c1.375 0 2.5 1.125 2.5 2.5 0 1.375-1.125 2.5-2.5 2.5z"/><path fill="#04294F" d="m1095.642 1283.93h-26c-1.375 0-2.5-1.125-2.5-2.5 0-1.375 1.125-2.5 2.5-2.5h26c1.375 0 2.5 1.125 2.5 2.5 0 1.375-1.125 2.5-2.5 2.5z"/><path fill="#04294F" d="m1096.142 1297.93h-27c-1.1 0-2-.9-2-2 0-1.1.9-2 2-2h27c1.1 0 2 .9 2 2 0 1.1-.9 2-2 2z"/><path fill="#04294F" d="m1097.642 1326.93h-30c-.275 0-.5.225-.5.5 0 .275.225.5.5.5h30c.275 0 .5-.225.5-.5 0-.275-.225-.5-.5-.5z"/><path fill="#04294F" d="m1097.142 1332.93h-29c-.55 0-1 .45-1 1 0 .55.45 1 1 1h29c.55 0 1-.45 1-1 0-.55-.45-1-1-1z"/><path fill="#FFF" d="m1094.655 1137.074c-.315.104-.658.053-.978.138-1.572.419-6.906 1.718-12.535 1.718-6.276 0-13-1.846-13-1.846-7-2.154-12-4.984-12-11.077v-24c0-6.092 5.4-11.077 12-11.077h26c6.6 0 12 4.984 12 11.077v24c0 5.934-5 8.923-11.487 11.067z"/><path fill="#FFB400" d="m1094.142 1112.13s-6.317.8-13 .8c-6.306 0-13-.8-13-.8-6.682-.014-12.002-4.32-12-9.6v-3.2c0-5.28 5.4-9.6 12-9.6 0 0 5.882-.8 12-.8 6.841 0 14 .8 14 .8 6.6 0 12 4.32 12 9.6v3.2c0 5.28-5.4 9.6-12 9.6z"/><path fill="#FFB400" d="m1056.142 1093.93v6h50v-6"/><path fill="#FFB400" d="m1056.212 1093.09-.07.301v.539h1"/><ellipse cx="1081.142" cy="1093.43" fill="#F04E23" rx="25" ry="4.5"/><path fill="#FFF" d="m1144.315 1341.276c.453-19.174.257-38.364-.587-57.524-.114-2.578 1.319-6.191 3.878-6.519 2.806-.359 4.536 2.947 5.221 5.692 2.656 10.635 2.626 21.737 2.403 32.696-.167 8.204-.595 16.922-5.271 23.665-1.215 1.752-3.775 3.016-5.644 1.99z"/><path fill="#FFF" d="m1025.608 1269.231c.994-3.957 5.668-18.593-2.32-17.519-4.915.661-9.698 7.921-10.454 12.43-.573 3.417-1.198 17.106 1.335 19.118 5.231 4.153 10.627-10.796 11.439-14.029z"/><ellipse cx="2087.642" cy="1841.93" fill="#04294F" rx="79.5" ry="10"/><ellipse cx="2088.142" cy="1574.43" fill="#04294F" rx="25" ry="8.5"/><path fill="#04294F" d="m2063.142 1572.93v53.965c0 3.728-.697 7.421-2.083 10.882-1.916 4.785-5.476 12.808-11.917 25.152-12 23-18.517 30.224-41 78-8 17 0 101 0 101h80v-269h-25z"/><path fill="#04294F" d="m2113.142 1572.93v53.965c0 3.728.697 7.421 2.083 10.882 1.916 4.785 5.476 12.808 11.917 25.152 12 23 18.517 30.224 41 78 8 17 0 101 0 101h-80v-269h25z"/><path fill="#FFB400" d="m2097.142 1821.93h-16c-6.6 0-12-5.4-12-12v-149c0-6.6 5.4-12 12-12h16c6.6 0 12 5.4 12 12v149c0 6.6-5.4 12-12 12z"/><path fill="#FFF" d="m2097.142 1712.93h-16c-6.6 0-12-5.4-12-12v-40c0-6.6 5.4-12 12-12h16c6.6 0 12 5.4 12 12v40c0 6.6-5.4 12-12 12z"/><path fill="#04294F" d="m2102.642 1664.93h-26c-1.375 0-2.5-1.125-2.5-2.5 0-1.375 1.125-2.5 2.5-2.5h26c1.375 0 2.5 1.125 2.5 2.5 0 1.375-1.125 2.5-2.5 2.5z"/><path fill="#04294F" d="m2086.642 1680.93h-10c-1.375 0-2.5-1.125-2.5-2.5 0-1.375 1.125-2.5 2.5-2.5h10c1.375 0 2.5 1.125 2.5 2.5 0 1.375-1.125 2.5-2.5 2.5z"/><path fill="#04294F" d="m2104.642 1680.93h-5c-1.375 0-2.5-1.125-2.5-2.5 0-1.375 1.125-2.5 2.5-2.5h5c1.375 0 2.5 1.125 2.5 2.5 0 1.375-1.125 2.5-2.5 2.5z"/><path fill="#04294F" d="m2102.642 1754.93h-26c-1.375 0-2.5-1.125-2.5-2.5 0-1.375 1.125-2.5 2.5-2.5h26c1.375 0 2.5 1.125 2.5 2.5 0 1.375-1.125 2.5-2.5 2.5z"/><path fill="#04294F" d="m2103.142 1768.93h-27c-1.1 0-2-.9-2-2 0-1.1.9-2 2-2h27c1.1 0 2 .9 2 2 0 1.1-.9 2-2 2z"/><path fill="#04294F" d="m2104.642 1797.93h-30c-.275 0-.5.225-.5.5 0 .275.225.5.5.5h30c.275 0 .5-.225.5-.5 0-.275-.225-.5-.5-.5z"/><path fill="#04294F" d="m2104.142 1803.93h-29c-.55 0-1 .45-1 1 0 .55.45 1 1 1h29c.55 0 1-.45 1-1 0-.55-.45-1-1-1z"/><path fill="#FFF" d="m2101.655 1608.074c-.315.104-.658.053-.979.138-1.572.419-6.906 1.718-12.535 1.718-6.275 0-13-1.846-13-1.846-7-2.154-12-4.984-12-11.077v-24c0-6.092 5.4-11.077 12-11.077h26c6.6 0 12 4.984 12 11.077v24c.001 5.934-4.999 8.923-11.486 11.067z"/><path fill="#FFB400" d="m2101.142 1583.13s-6.317.8-13 .8c-6.306 0-13-.8-13-.8-6.682-.014-12.002-4.32-12-9.6v-3.2c0-5.28 5.4-9.6 12-9.6 0 0 5.882-.8 12-.8 6.841 0 14 .8 14 .8 6.6 0 12 4.32 12 9.6v3.2c0 5.28-5.4 9.6-12 9.6z"/><path fill="#FFB400" d="m2063.142 1564.93v6h50v-6"/><path fill="#FFB400" d="m2063.212 1564.09-.07.301v.539h1"/><ellipse cx="2088.142" cy="1564.43" fill="#F04E23" rx="25" ry="4.5"/><path fill="#FFF" d="m2151.315 1812.276c.453-19.174.257-38.364-.587-57.524-.114-2.578 1.319-6.191 3.878-6.519 2.806-.359 4.536 2.947 5.221 5.692 2.656 10.635 2.626 21.737 2.403 32.696-.167 8.204-.595 16.922-5.271 23.665-1.216 1.752-3.775 3.016-5.644 1.99z"/><path fill="#FFF" d="m2032.608 1740.231c.994-3.957 5.668-18.593-2.32-17.519-4.915.661-9.698 7.921-10.454 12.43-.573 3.417-1.198 17.106 1.335 19.118 5.231 4.153 10.627-10.796 11.439-14.029z"/><ellipse cx="2082.642" cy="990.93" fill="#04294F" rx="79.5" ry="10"/><ellipse cx="2083.142" cy="723.43" fill="#04294F" rx="25" ry="8.5"/><path fill="#04294F" d="m2058.142 721.93v53.965c0 3.728-.697 7.421-2.083 10.882-1.916 4.785-5.476 12.808-11.917 25.152-12 23-18.517 30.224-41 78-8 17 0 101 0 101h80v-269h-25z"/><path fill="#04294F" d="m2108.142 721.93v53.965c0 3.728.697 7.421 2.083 10.882 1.916 4.785 5.476 12.808 11.917 25.152 12 23 18.517 30.224 41 78 8 17 0 101 0 101h-80v-269h25z"/><path fill="#FFB400" d="m2092.142 970.93h-16c-6.6 0-12-5.4-12-12v-149c0-6.6 5.4-12 12-12h16c6.6 0 12 5.4 12 12v149c0 6.6-5.4 12-12 12z"/><path fill="#FFF" d="m2092.142 861.93h-16c-6.6 0-12-5.4-12-12v-40c0-6.6 5.4-12 12-12h16c6.6 0 12 5.4 12 12v40c0 6.6-5.4 12-12 12z"/><path fill="#04294F" d="m2097.642 813.93h-26c-1.375 0-2.5-1.125-2.5-2.5 0-1.375 1.125-2.5 2.5-2.5h26c1.375 0 2.5 1.125 2.5 2.5 0 1.375-1.125 2.5-2.5 2.5z"/><path fill="#04294F" d="m2081.642 829.93h-10c-1.375 0-2.5-1.125-2.5-2.5 0-1.375 1.125-2.5 2.5-2.5h10c1.375 0 2.5 1.125 2.5 2.5 0 1.375-1.125 2.5-2.5 2.5z"/><path fill="#04294F" d="m2099.642 829.93h-5c-1.375 0-2.5-1.125-2.5-2.5 0-1.375 1.125-2.5 2.5-2.5h5c1.375 0 2.5 1.125 2.5 2.5 0 1.375-1.125 2.5-2.5 2.5z"/><path fill="#04294F" d="m2097.642 903.93h-26c-1.375 0-2.5-1.125-2.5-2.5 0-1.375 1.125-2.5 2.5-2.5h26c1.375 0 2.5 1.125 2.5 2.5 0 1.375-1.125 2.5-2.5 2.5z"/><path fill="#04294F" d="m2098.142 917.93h-27c-1.1 0-2-.9-2-2 0-1.1.9-2 2-2h27c1.1 0 2 .9 2 2 0 1.1-.9 2-2 2z"/><path fill="#04294F" d="m2099.642 946.93h-30c-.275 0-.5.225-.5.5 0 .275.225.5.5.5h30c.275 0 .5-.225.5-.5 0-.275-.225-.5-.5-.5z"/><path fill="#04294F" d="m2099.142 952.93h-29c-.55 0-1 .45-1 1 0 .55.45 1 1 1h29c.55 0 1-.45 1-1 0-.55-.45-1-1-1z"/><path fill="#FFF" d="m2096.655 757.074c-.315.104-.658.053-.979.138-1.572.419-6.906 1.718-12.535 1.718-6.275 0-13-1.846-13-1.846-7-2.154-12-4.984-12-11.077v-24c0-6.092 5.4-11.077 12-11.077h26c6.6 0 12 4.984 12 11.077v24c.001 5.934-4.999 8.923-11.486 11.067z"/><path fill="#FFB400" d="m2096.142 732.13s-6.317.8-13 .8c-6.306 0-13-.8-13-.8-6.682-.014-12.002-4.32-12-9.6v-3.2c0-5.28 5.4-9.6 12-9.6 0 0 5.882-.8 12-.8 6.841 0 14 .8 14 .8 6.6 0 12 4.32 12 9.6v3.2c0 5.28-5.4 9.6-12 9.6z"/><path fill="#FFB400" d="m2058.142 713.93v6h50v-6"/><path fill="#FFB400" d="m2058.212 713.09-.07.301v.539h1"/><ellipse cx="2083.142" cy="713.43" fill="#F04E23" rx="25" ry="4.5"/><path fill="#FFF" d="m2146.315 961.276c.453-19.174.257-38.364-.587-57.524-.114-2.578 1.319-6.191 3.878-6.519 2.806-.359 4.536 2.947 5.221 5.692 2.656 10.635 2.626 21.737 2.403 32.696-.167 8.204-.595 16.922-5.271 23.665-1.216 1.752-3.775 3.016-5.644 1.99z"/><path fill="#FFF" d="m2027.608 889.231c.994-3.957 5.668-18.593-2.32-17.519-4.915.661-9.698 7.921-10.454 12.43-.573 3.417-1.198 17.106 1.335 19.118 5.231 4.153 10.627-10.795 11.439-14.029z"/><path fill="#FFB400" d="m1183.652 1656.872h87.56s8.864 37.619 9.089 38.371c.226.752 2.456 43.792 2.456 43.792l-20.428 38.105s-24.652 13.867-25.583 13.867c-.932 0-26.547-5.123-26.547-5.123l-26.547-21.89-9.334-27.052 2.413-39.733z"/><ellipse cx="1228.829" cy="1655.941" fill="#F04E23" rx="46.109" ry="8.383"/><path fill="#FFF" d="m1282.15 1596.326c.155-1.583-1.357.148-2.829.71-2.646 1.011-5.483 1.612-8.253 2.165-8.799 1.757-17.811 2.486-26.759 2.953-19.827 1.035-40.358.957-59.968-2.503-2.887-.509-5.78-1.094-8.589-1.939-.547-.165-4.974-2.358-5.152-2.275.415-.193.196 1.821 0 1.777.088.02 1.437-.92 1.533-.958 2.479-.968 4.958-1.742 7.561-2.332 18.247-4.136 37.795-4.258 56.401-3.751 10.448.285 20.977.899 31.3 2.612 3.605.598 7.24 1.292 10.722 2.421 1.012.328 2.298 1.175 3.31 1.344.997.166.885 1.429.723-.224.435 4.443 7.439 4.488 7 0-.523-5.341-6.54-7.168-10.956-8.398-9.531-2.655-19.689-3.513-29.523-4.172-23.347-1.565-48.433-1.843-71.366 3.542-4.227.993-11.699 2.527-13.204 7.455-1.566 5.128 4.257 7.822 8.102 9.172 8.569 3.008 18.129 3.819 27.114 4.591 13.448 1.155 27 1.357 40.484.844 11.79-.449 23.828-1.265 35.367-3.881 5.027-1.14 13.364-2.843 13.982-9.151.439-4.482-6.564-4.452-7-.002z"/><ellipse cx="1226.39" cy="1838.979" fill="#FFF" rx="45.066" ry="7.452"/><path fill="#FFF" d="m1267.956 1838.979c.287-2.231.595-.742-.805-.55-.99.136-2.112.751-3.09 1.023-3.076.856-6.253 1.391-9.411 1.83-9.338 1.296-18.841 1.649-28.26 1.649s-18.921-.353-28.26-1.649c-3.159-.438-6.336-.974-9.411-1.83-.978-.272-2.1-.888-3.09-1.023-1.612-.221-.805-1.625-.805.55s-.807.771.805.55c.99-.136 2.112-.751 3.09-1.023 3.076-.856 6.253-1.391 9.411-1.83 9.338-1.296 18.841-1.649 28.26-1.649s18.921.353 28.26 1.649c3.159.438 6.336.974 9.411 1.83.978.272 2.1.887 3.09 1.023 1.4.192 1.092 1.68.805-.55.568 4.406 7.575 4.463 7 0-.548-4.253-4.428-5.826-8.119-6.96-7.318-2.25-15.317-2.873-22.91-3.405-18.239-1.278-38.217-1.654-56.091 2.886-3.434.872-8.773 2.243-9.846 6.225-1.111 4.122 3.107 6.491 6.313 7.669 6.421 2.359 13.642 3.004 20.404 3.619 10.369.942 20.826 1.125 31.227.75 9.317-.336 18.859-.948 27.971-3.057 4.402-1.019 10.374-2.476 11.05-7.727.575-4.456-6.43-4.414-6.999 0z"/><path fill="#FFF" d="m1167.123 1601.352c3.631 6.502 6.396 13.573 8.622 20.661 2.147 6.84 3.763 13.903 4.285 21.065.604 8.294-.696 16.345-2.175 24.484-5.312 29.232-15.077 60.359-2.079 88.98 5.92 13.036 15.903 23.875 28 31.43 3.832 2.393 7.35-3.661 3.533-6.044-10.916-6.818-19.75-16.55-25.185-28.251-6.385-13.745-6.764-28.906-4.964-43.714 1.961-16.13 6.181-31.901 8.706-47.941 2.179-13.841 1.082-27.12-2.961-40.537-2.442-8.105-5.6-16.256-9.737-23.666-2.197-3.933-8.245-.408-6.045 3.533z"/><path fill="#FFF" d="m1280.765 1596.888c-8.765 17.898-14.437 39.594-11.916 59.519 3.781 29.88 17.217 62.083 6.723 91.944-4.916 13.988-14.827 25.761-27.345 33.579-3.813 2.381-.303 8.44 3.533 6.044 23.339-14.577 35.534-39.736 34.518-66.999-.593-15.895-4.355-31.479-7.389-47.029-3.116-15.97-4.81-30.715-1.181-46.751 2.065-9.127 4.975-18.347 9.102-26.775 1.973-4.03-4.062-7.582-6.045-3.532z"/><path fill="#FFF" d="m1209.268 1784.952s12.109 1.863 16.767 1.863 22.356-.932 22.356-.932-3.726 4.657-4.657 9.315c-.931 4.657-.931 37.26-.931 37.26l-33.534-.931s1.863-29.808-.931-39.123c-2.468-8.226-4.657-8.383-4.657-8.383z"/><path fill="#FFF" d="m1208.803 1786.64c6.486.991 13.068 2.051 19.643 1.882 6.651-.171 13.301-.539 19.945-.888-.412-.996-.825-1.992-1.237-2.987-5.913 7.61-5.682 15.377-5.877 24.521-.165 7.762-.223 15.527-.225 23.291.583-.583 1.167-1.167 1.75-1.75-11.178-.31-22.356-.621-33.534-.931l1.75 1.75c.544-8.828.812-17.721.501-26.562-.174-4.96-.417-10.058-2.059-14.784-.794-2.285-2.312-7.341-5.316-7.847-.31 1.125-.62 2.25-.93 3.375 1.863.309 3.726.619 5.589.93 2.203.367 3.151-3.005.931-3.375-1.863-.31-3.726-.621-5.589-.932-2.202-.367-3.151 3.001-.93 3.375 2.103.354 3.677 7.677 4.075 10.096.807 4.915.815 10.017.835 14.984.029 6.912-.181 13.839-.606 20.739-.059.963.851 1.725 1.75 1.75 11.178.31 22.356.621 33.534.931.946.026 1.75-.823 1.75-1.75.001-6.701.052-13.403.165-20.103.148-8.765-.786-17.9 4.911-25.234.843-1.084.439-3.075-1.237-2.987-13.148.69-25.594 1.127-38.657-.869-2.205-.337-3.155 3.035-.932 3.375z"/><path fill="#FFF" d="m1247.364 1783.594c-.865.266-1.665.532-2.502.895-.812.352-1.649.477-2.418.953-.94.582-1.365 1.764-.914 2.79.407.927 1.586 1.71 2.636 1.294.912-.361 1.54-.907 2.372-1.386.767-.442 1.427-.908 2.139-1.43.684-.501 1.062-1.299.697-2.128-.329-.753-1.182-1.242-2.01-.988z"/><path fill="#FFF" d="m1245.906 1788.111c.006-.061.012-.121.018-.182.005-.12-.021-.233-.075-.337-.035-.109-.096-.202-.181-.282-.059-.046-.118-.091-.177-.137-.136-.079-.284-.119-.442-.12-.061.006-.121.012-.182.018-.092.012-.184.025-.276.037-.083.035-.165.07-.248.105-.121.065-.218.155-.292.268-.064.065-.109.141-.134.229-.047.081-.071.168-.071.262-.025.092-.025.184 0 .276 0 .094.024.181.071.262.042.129.114.24.215.334.07.054.14.108.21.162.083.035.165.07.248.105.092.012.184.025.276.037.092-.012.184-.025.276-.037.083-.035.165-.07.248-.105.121-.065.218-.155.292-.268.064-.065.109-.141.134-.229.066-.121.096-.255.09-.398z"/><path fill="#FFF" d="m1243.876 1790.544c-.227.16-.253.349-.387.573-.131.219.042.452.271.473.529.048 1.106-.221 1.587-.421.493-.205.981-.421 1.465-.646 1.067-.497 2.106-1.051 3.118-1.651.984-.584 1.931-1.228 2.849-1.913.845-.631 1.944-1.302 2.409-2.275.09-.187-.06-.444-.287-.373-.994.311-1.804 1.159-2.64 1.761-.928.668-1.889 1.29-2.866 1.882-.95.576-1.927 1.107-2.922 1.6-.498.246-1.001.48-1.509.704-.484.214-1.059.403-1.425.796.127-.016.254-.033.381-.049-.071-.096-.033-.182.113-.258.1-.101-.035-.289-.157-.203z"/><path fill="#FFF" d="m1248.694 1783.242c-.996-.121-2.052.325-2.967.655-1.066.384-2.11.833-3.194 1.167-2.273.699-4.604.84-6.953 1.083-.342.035-.476.556-.087.645 2.31.525 4.754.178 7.007-.474 1.115-.323 2.176-.758 3.223-1.259.513-.246 1.036-.445 1.56-.665.513-.215 1.06-.374 1.557-.62.281-.14.104-.502-.146-.532z"/><path fill="#FFF" d="m1206.767 1783.5c.126.1.239.222.372.314.132.091.286.153.43.223.291.141.582.283.873.424.582.283 1.165.565 1.75.841.262.124.58.073.735-.193.139-.238.068-.604-.193-.735-1.247-.625-2.495-1.25-3.742-1.875-.654-.328-1.189.579-.574.982 1.129.74 2.443 1.141 3.791 1.19.316.012.585-.277.585-.585 0-.329-.268-.571-.585-.585-1.298-.058-2.545-.594-3.484-1.49-.281.281-.563.563-.844.844.782.621 1.621 1.157 2.532 1.57.453.205.916.388 1.39.539.478.152 1.099.281 1.556.035.223-.12.215-.398.074-.571-.276-.338-.82-.486-1.227-.615-.414-.131-.824-.273-1.22-.451-.8-.36-1.57-.81-2.261-1.352-.253-.199-.597-.247-.844 0-.224.223-.235.622 0 .844 1.176 1.109 2.714 1.753 4.329 1.816 0-.39 0-.78 0-1.17-1.147-.036-2.249-.389-3.217-1.002-.191.327-.383.655-.574.982 1.258.607 2.516 1.214 3.774 1.821.181-.309.361-.619.542-.928-.591-.269-1.184-.532-1.777-.795-.282-.125-.564-.249-.846-.374-.152-.068-.304-.14-.459-.202-.17-.068-.352-.076-.531-.111-.319-.061-.666.362-.355.609z"/><path fill="#FFF" d="m1203.278 1786.953c.21.307.436.628.706.883.286.271.571.534.845.819.546.566 1.092 1.133 1.627 1.709.268.288.526.585.786.88.245.277.481.605.763.843.294.248.519.563.78.845.277.299.579.571.852.872.234.257.588-.069.454-.35-.169-.356-.317-.719-.507-1.065-.195-.354-.454-.669-.64-1.026-.186-.356-.491-.682-.747-.991-.264-.317-.546-.62-.829-.92-.544-.576-1.115-1.108-1.738-1.598-.326-.257-.657-.507-.982-.765-.307-.244-.698-.399-1.066-.532-.216-.078-.433.207-.304.396z"/><path fill="#FFF" d="m1249.849 1783.333c-1.864.364-3.661 1.017-5.521 1.416.128.305.257.609.385.914 1.816-.789 3.632-1.579 5.448-2.368.525-.228.149-1.068-.385-.914-2.386.687-4.772 1.373-7.159 2.06-.621.179-.361 1.102.266.964 2.926-.641 5.741-1.731 8.339-3.222.558-.32.055-1.185-.505-.863-2.528 1.45-5.254 2.498-8.1 3.121.089.321.177.643.266.964 2.386-.687 4.772-1.373 7.159-2.06-.128-.305-.257-.609-.385-.914-1.816.789-3.632 1.579-5.448 2.368-.543.236-.139 1.026.385.914 1.872-.401 3.823-.857 5.487-1.83.305-.179.093-.614-.232-.55z"/><path fill="#FFF" d="m1249.196 1786.842c.042-.018-.117.018-.1.013-.064.018-.124.056-.182.089-.076.043-.152.085-.225.133-.158.102-.312.197-.462.311-.305.233-.611.466-.916.699-.318.242-.633.488-.947.734-.153.12-.271.278-.396.394-.182.168-.304.351-.306.607-.001.147.11.312.261.343.234.048.438.004.631-.136.083-.06.156-.085.256-.144.108-.064.204-.144.299-.224.295-.247.59-.494.882-.745.284-.243.567-.487.851-.73.151-.13.286-.268.425-.411.061-.063.119-.129.177-.195.081-.094.12-.199.189-.297.081-.115.044-.294-.05-.388-.107-.111-.254-.11-.387-.053z"/><path fill="#FFF" d="m1234.053 1768.66c-.788.881-1.619 1.817-1.835 2.98-.366 1.971 1.29 3.894 3.224 4.422s4.003-.026 5.837-.837c7.225-3.193 12.077-10.016 16.396-16.63 2.746-4.205 5.436-8.473 7.463-13.068 4.751-10.77 5.625-23.203 2.428-34.532-.713-2.527-2.026-5.369-4.6-5.882-2.304-.459-4.578 1.33-5.484 3.498-1.783 4.265-.345 9.969-.751 14.492-.503 5.606-1.924 11.098-3.957 16.337-4.209 10.843-11 20.589-18.721 29.22z"/><path fill="#FFF" d="m1254.05 1666.256c-.005-2.604.186-5.303 1.412-7.6.682-1.278 2.005-2.505 3.407-2.139.99.259 1.612 1.214 2.112 2.106 2.06 3.671 3.719 7.625 4.312 11.793.592 4.168.055 8.578-2.036 12.232-.658 1.15-1.502 2.25-2.674 2.87-6.145 3.248-6.526-15.721-6.533-19.262z"/><path fill="#04294F" d="m1202.557 1658.725-15.74-96.484-63.317 11.407-1.773-9.842 73.322-13.21 17.378 106.519z"/><path fill="#FFF" d="m1282.15 1596.326c.155-1.583-1.357.148-2.829.71-2.646 1.011-5.483 1.612-8.253 2.165-8.799 1.757-17.811 2.486-26.759 2.953-19.827 1.035-40.358.957-59.968-2.503-2.887-.509-5.78-1.094-8.589-1.939-.547-.165-4.974-2.358-5.152-2.275.415-.193.196 1.821 0 1.777.088.02 1.437-.92 1.533-.958 2.479-.968 4.958-1.742 7.561-2.332 18.247-4.136 37.795-4.258 56.401-3.751 10.448.285 20.977.899 31.3 2.612 3.605.598 7.24 1.292 10.722 2.421 1.012.328 2.298 1.175 3.31 1.344.997.166.885 1.429.723-.224.435 4.443 7.439 4.488 7 0-.523-5.341-6.54-7.168-10.956-8.398-9.531-2.655-19.689-3.513-29.523-4.172-23.347-1.565-48.433-1.843-71.366 3.542-4.227.993-11.699 2.527-13.204 7.455-1.566 5.128 4.257 7.822 8.102 9.172 8.569 3.008 18.129 3.819 27.114 4.591 13.448 1.155 27 1.357 40.484.844 11.79-.449 23.828-1.265 35.367-3.881 5.027-1.14 13.364-2.843 13.982-9.151.439-4.482-6.564-4.452-7-.002z"/><path fill="#04294F" d="m1192.939 1581.708c-.119 2.395.494 4.856.958 7.201.468 2.363.951 4.723 1.418 7.087.169.857 1.192 1.349 1.99 1.13.924-.254 1.261-1.123 1.13-1.99-.722-4.76-1.48-9.516-2.164-14.282-.114-.797-1.085-1.285-1.803-1.177-.793.119-1.432.78-1.425 1.614.036 4.219.314 8.46.838 12.647 1.108-.15 2.215-.3 3.323-.45-.671-4.012-1.482-7.995-2.486-11.937-.213-.834-1.142-1.338-1.961-1.113-.911.25-1.243 1.107-1.114 1.961.512 3.373 1.117 6.743 1.891 10.066 1.013-.279 2.026-.559 3.039-.838-.763-3.236-1.569-6.48-2.235-9.737-.311-1.522-2.878-1.205-2.741.371.264 3.047.456 6.11.821 9.146.93-.126 1.861-.252 2.792-.378-.422-2.652-.597-5.358-.713-8.038-.068-1.563-2.304-1.929-2.758-.373-.699 2.398.579 4.555.537 6.926h2.796c-.115-2.164-.49-4.303-1.121-6.376-.361-1.185-2.387-1.399-2.622 0-.301 1.793.012 3.498.365 5.259.343 1.708.685 3.416 1.027 5.124.144.72 1 1.134 1.672.949.75-.206 1.094-.95.949-1.672-.306-1.523-.611-3.047-.917-4.57-.283-1.409-.719-2.922-.476-4.368-.874 0-1.748 0-2.622 0 .563 1.848.876 3.723.946 5.653.065 1.795 2.756 1.805 2.796 0 .026-1.132-.227-2.239-.476-3.336-.215-.948-.426-1.888-.15-2.844-.919-.125-1.838-.249-2.758-.373.128 2.819.427 5.612.729 8.416.082.763.594 1.421 1.421 1.421.731 0 1.471-.651 1.421-1.421-.198-3.053-.572-6.101-.872-9.146-.914.124-1.827.247-2.741.371.706 3.256 1.278 6.557 1.887 9.833.156.837 1.168 1.312 1.939 1.101.881-.242 1.254-1.099 1.101-1.939-.614-3.361-1.388-6.688-1.856-10.076-1.025.283-2.05.565-3.074.848.951 3.958 1.736 7.957 2.298 11.989.114.821 1.12 1.322 1.856 1.212.762-.115 1.549-.813 1.467-1.661-.41-4.212-.724-8.42-.935-12.647-1.076.146-2.152.291-3.228.437.775 4.75 1.476 9.513 2.213 14.269 1.04-.287 2.08-.573 3.119-.86-.474-2.361-.959-4.718-1.491-7.067-.526-2.323-1.012-4.756-2.141-6.866-.487-.918-1.813-.438-1.859.504z"/><path fill="#04294F" d="m1195.081 1579.639c-.385.568-.278 1.083-.197 1.719.089.698.134 1.401.235 2.097.2 1.375.449 2.738.703 4.103.251 1.349.498 2.703.682 4.063.175 1.289.191 2.636.597 3.869.304.921 1.662 1.226 2.167.283.679-1.269.291-2.977.095-4.337-.202-1.406-.48-2.794-.798-4.178-.321-1.394-.671-2.776-1.061-4.152-.189-.669-.434-1.321-.639-1.986-.217-.701-.33-1.285-.993-1.689-.28-.17-.619-.047-.791.208z"/><path fill="#04294F" d="m1196.041 1578.739c-.472.421-.302 1.006-.227 1.548.094.68.192 1.372.285 2.058.183 1.353.447 2.697.642 4.049.186 1.291.332 2.592.452 3.891.127 1.373-.029 3.145.979 4.219.535.57 1.313.311 1.725-.222.908-1.176.412-3.213.258-4.568-.173-1.514-.412-3.015-.714-4.508-.295-1.46-.683-2.885-1.168-4.293-.228-.659-1.123-3.164-2.232-2.174z"/><path fill="#04294F" d="m1196.643 1579.404c-.395 1.059.054 2.452.254 3.518.227 1.21.341 2.427.448 3.653s.183 2.457.245 3.686c.031.616.052 1.232.063 1.849.013.706-.006 1.233.494 1.786.355.393 1.106.406 1.458 0 .523-.602.481-1.162.456-1.918-.022-.661-.055-1.321-.099-1.981-.083-1.245-.237-2.485-.424-3.719-.184-1.216-.443-2.419-.665-3.628-.205-1.12-.386-2.687-1.278-3.498-.334-.305-.801-.155-.952.252z"/><path fill="#04294F" d="m1191.938 1583.972c-.284.076-.286.363-.273.599.006.117.035.231.045.347-.006-.073 0-.004.004.03.006.046.011.092.015.138.011.107.021.213.038.319.007.048.007.046-.001-.007.003.023.006.046.009.069.005.046.01.093.016.139.016.132.044.237.097.359.025.058.045.131.11.216.083.109.273.185.38.049.254-.32.25-.749.189-1.135-.025-.16-.057-.319-.094-.477-.021-.091-.055-.173-.091-.26-.019-.045-.035-.095-.059-.137-.025-.054-.021-.031.011.069-.002-.035-.007-.069-.015-.102-.04-.164-.224-.258-.381-.216z"/><path fill="none" d="m1190.638 1583.751 1.863 11.177"/><path fill="#04294F" d="m1191.401 1584.355c-.187.129-.297.298-.359.515-.043.15-.02.315-.01.468.018.274.01.547.055.818.036.217.079.433.125.648.069.316.161.635.395.871.397.4 1.151.228 1.286-.339.083-.351-.013-.678-.101-1.016-.056-.212-.091-.431-.152-.641-.031-.105-.082-.204-.113-.309-.031-.104-.052-.212-.077-.318-.035-.151-.069-.294-.163-.422-.113-.154-.218-.273-.409-.328-.151-.045-.342-.041-.477.053z"/><path fill="#04294F" d="m1193.31 1586.294c.002-.001.004-.002.006-.002.051-.021.076-.053.082-.107.005-.044-.016-.075-.042-.107-.032-.039-.088-.044-.134-.035-.006.001-.012.002-.017.003-.05.01-.099.06-.109.109-.055.263-.022.539.001.804.025.29.051.579.078.869.055.579.11 1.158.165 1.737.151-.02.302-.041.453-.061-.19-.546-.387-1.088-.587-1.629-.1-.271-.205-.541-.307-.811-.096-.256-.2-.531-.34-.766-.078-.131-.247-.036-.228.096.039.28.133.566.22.835.085.264.167.528.254.791.178.537.357 1.073.544 1.607.08.228.48.214.453-.061-.058-.59-.117-1.181-.175-1.771-.029-.29-.06-.579-.091-.869-.028-.264-.052-.537-.144-.787-.005.035-.009.071-.014.106.002-.003.003-.005.005-.008-.025.019-.05.038-.074.057.003-.001.006-.001.009-.002-.036-.01-.072-.019-.108-.029.001.002.003.003.004.005.019.024.066.038.096.026z"/><path fill="#04294F" d="m1191.099 1584.277c-.075.085-.059.169-.047.276.014.13.029.261.046.391.033.263.071.526.113.788.041.26.088.519.154.772.068.257.108.502.227.742.029.058.118.028.118-.032.003-.258-.06-.496-.096-.749-.037-.261-.085-.519-.131-.779-.046-.258-.088-.518-.127-.777-.02-.13-.038-.26-.056-.389-.015-.108-.019-.189-.111-.254-.025-.019-.07-.012-.09.011z"/><path fill="#04294F" d="m1191.023 1584.155c-.038.236-.009.466.011.703.021.235.044.469.073.703.028.229.066.457.108.683.044.233.087.457.192.671.034.068.131.03.135-.036.011-.222-.029-.434-.063-.653-.036-.234-.069-.468-.103-.701-.034-.23-.066-.461-.091-.693-.025-.228-.031-.456-.096-.676-.022-.076-.152-.09-.166-.001z"/><path fill="#04294F" d="m1190.9 1584.245c-.069.24-.02.508.005.753.024.238.041.476.074.713.034.242.074.483.129.722.028.119.066.235.101.352.03.101.048.227.154.274.034.015.063.007.086-.022.059-.079.033-.177.014-.267-.024-.12-.042-.241-.065-.362-.046-.24-.096-.479-.137-.72-.042-.246-.087-.492-.11-.741-.022-.232-.008-.481-.092-.701-.029-.073-.135-.083-.159-.001z"/><path fill="#04294F" d="m1190.925 1584.266c-.077.7.101 1.468.206 2.162.111.733.24 1.462.382 2.19.143.727.305 1.45.464 2.173.082.375.165.751.254 1.125.078.328.128.683.299.975.063.108.231.06.233-.063.006-.337-.124-.677-.207-1.002-.095-.372-.191-.744-.28-1.118-.165-.695-.304-1.394-.437-2.096-.134-.701-.257-1.404-.373-2.108-.121-.734-.157-1.558-.418-2.256-.026-.066-.116-.052-.123.018z"/><path fill="#04294F" d="m1199.061 1583.132c.144.293.114.678.157.996.05.367.099.734.154 1.1.109.728.191 1.469.357 2.187.055.239.419.137.367-.101-.146-.66-.215-1.346-.314-2.014-.101-.684-.224-1.37-.276-2.06-.124.017-.248.034-.372.05.076.548.23 1.089.328 1.635.098.545.163 1.096.275 1.639.042.205.367.157.363-.049-.012-.56-.106-1.115-.207-1.665-.101-.551-.195-1.134-.392-1.66-.085-.226-.417-.141-.365.101.142.663.218 1.343.313 2.014.097.682.228 1.373.275 2.06h.38c-.061-.767-.213-1.53-.333-2.29-.06-.378-.121-.757-.192-1.134-.06-.314-.101-.673-.299-.936-.099-.126-.292-.021-.219.127z"/><path fill="#04294F" d="m1199.452 1583.266c.069.625.165 1.246.257 1.869.046.309.091.619.155.925.061.292.101.616.226.889.036.078.135.027.144-.039.038-.299-.024-.63-.054-.929-.031-.303-.078-.604-.126-.904-.097-.618-.19-1.236-.31-1.85-.033-.162-.311-.128-.292.039z"/><path fill="#04294F" d="m1199.657 1583.065c-.046.263.022.534.056.797.037.284.081.567.126.849.091.572.189 1.144.343 1.701.022.081.154.068.15-.02-.028-.566-.11-1.131-.202-1.693-.046-.281-.091-.562-.144-.841-.051-.27-.071-.566-.202-.81-.027-.049-.117-.042-.127.017z"/><path fill="#04294F" d="m1199.732 1583.171c.047.529.146 1.051.22 1.576.075.531.106 1.081.223 1.605.02.088.144.062.15-.02.035-.526-.05-1.071-.123-1.591-.075-.537-.16-1.074-.33-1.59-.023-.071-.147-.064-.14.02z"/><path fill="#04294F" d="m1199.795 1583.221c-.027.101-.004.207.007.309.012.111.03.219.048.329.036.218.064.437.096.656.066.451.138.899.205 1.349.011.075.128.054.129-.017.003-.237.012-.473-.006-.709-.017-.222-.05-.444-.082-.664-.033-.226-.079-.45-.127-.674-.041-.19-.074-.444-.202-.597-.021-.023-.061-.009-.068.018z"/><path fill="#04294F" d="m1199.806 1583.589c.01.065.017.146.019.221.001.038-.002.075-.006.113-.001.009-.002.019-.003.028-.001.007-.004.029-.001.01-.003.021-.006.042-.012.063-.019.072.036.145.11.145.029 0 .06-.013.081-.033.032-.032.035-.069.029-.111-.002-.013-.002-.012 0 .002 0-.005-.001-.009-.001-.014-.001-.011-.002-.022-.003-.033-.002-.019-.004-.038-.006-.056-.003-.025-.006-.051-.01-.076-.001-.005-.001-.009-.002-.014.001.008.001.007 0-.004-.001-.009-.002-.019-.003-.028-.009-.085-.022-.17-.041-.254-.009-.04-.058-.068-.097-.055-.043.014-.061.052-.054.096z"/><path fill="#04294F" d="m1199.783 1584.235c.229 2.495.566 4.972.985 7.442.102-.028.203-.056.305-.084-.171-.858-.35-1.715-.542-2.569-.091-.403-.184-.806-.279-1.208-.113-.475-.274-.957-.324-1.443-.03-.294-.457-.241-.403.055.269 1.485.593 2.955.822 4.448.045.293.482.166.442-.122-.152-1.102-.381-2.189-.688-3.259-.084-.293-.488-.164-.445.123.093.62.191 1.24.297 1.858.097.563.132 1.223.362 1.747.114-.067.228-.133.342-.2-.06-.1-.106-.206-.137-.318-.042-.126-.266-.115-.248.033.013.1.037.233.023.332-.041.286.379.34.389.053.02-.573-.19-1.204-.287-1.77-.106-.618-.204-1.238-.297-1.858-.148.041-.297.082-.445.123.306 1.069.536 2.157.691 3.258.147-.041.295-.081.442-.122-.231-1.482-.474-2.986-.869-4.435-.125.053-.25.105-.375.158.184.425.268.905.379 1.354.105.425.207.85.305 1.277.195.854.375 1.71.539 2.57.039.202.336.114.305-.084-.388-2.441-.692-4.898-.936-7.357-.021-.226-.374-.229-.353-.002z"/><path fill="#04294F" d="m1199.835 1585.321c.143.93.389 1.846.547 2.775.079.466.146.934.21 1.402.061.446.069.952.217 1.378.022.063.129.078.143 0 .083-.448-.002-.949-.051-1.399-.05-.455-.119-.909-.199-1.36-.169-.95-.357-1.941-.728-2.835-.035-.085-.153-.054-.139.039z"/><path fill="#04294F" d="m1200.297 1587.79c-.003.003-.007.006-.01.008h.067c.002.006.005.013.008.019-.025.014-.051.029-.076.043-.008-.002.061.359.071.405.032.15.069.299.103.448.066.288.128.577.184.868.057.29.109.581.152.873.023.157.047.314.067.471.018.138.027.271.108.39.047.069.176.094.216 0 .121-.282.016-.666-.028-.96-.052-.346-.113-.691-.193-1.031-.081-.34-.17-.68-.283-1.011-.052-.151-.103-.318-.18-.458-.041-.074-.095-.151-.187-.143-.048.004-.089.046-.074.097.009.032.031.045.057.064.022.017.051.001.065-.017.003-.003.005-.007.008-.01.031-.044-.038-.087-.075-.056z"/><path fill="#04294F" d="m1199.609 1582.809c-.002.361.105.734.175 1.087.079.397.153.795.219 1.195.127.78.201 1.572.351 2.348.011.057.096.041.098-.013.03-.783-.08-1.583-.201-2.356-.06-.385-.13-.769-.207-1.151-.076-.377-.145-.795-.325-1.138-.028-.054-.109-.028-.11.028z"/><path fill="#04294F" d="m1199.719 1583.106c-.056.157 0 .333.028.495.037.212.08.423.114.635.063.394.13.788.187 1.183.06.412.114.825.164 1.238.049.403.075.817.19 1.206.013.045.091.053.1 0 .066-.397.031-.806-.002-1.206-.034-.411-.082-.821-.142-1.228-.063-.425-.134-.848-.229-1.267-.047-.209-.09-.42-.145-.627-.042-.159-.066-.333-.186-.45-.026-.026-.067-.012-.079.021z"/><path fill="#04294F" d="m1199.824 1583.113c.023.832.238 1.663.325 2.492.088.838.12 1.681.201 2.52.007.069.101.069.107 0 .084-.859.03-1.71-.06-2.568-.086-.811-.151-1.699-.462-2.459-.022-.055-.112-.054-.111.015z"/><path fill="#04294F" d="m1190.884 1584.383c-.016.371.082.757.158 1.118.086.408.172.817.259 1.225.084.393.169.785.257 1.177.091.402.156.826.293 1.214.025.069.141.064.136-.018-.023-.405-.126-.813-.2-1.211-.074-.395-.153-.789-.236-1.182s-.171-.785-.258-1.177c-.086-.387-.161-.808-.348-1.161-.015-.033-.059-.017-.061.015z"/><path fill="#04294F" d="m1191.647 1588.002c.036.721.145 1.443.25 2.157.053.359.109.718.172 1.076.059.339.092.728.236 1.042.042.093.17.036.177-.048.026-.333-.074-.701-.125-1.03-.055-.359-.112-.718-.167-1.077-.11-.715-.198-1.438-.339-2.147-.024-.115-.21-.089-.204.027z"/><path fill="#04294F" d="m1191.602 1587.856c-.039.355.037.735.075 1.09.038.352.089.702.138 1.053.101.729.232 1.444.371 2.165.025.132.252.104.238-.032-.072-.718-.147-1.428-.257-2.143-.056-.362-.108-.725-.175-1.086-.065-.35-.102-.739-.24-1.068-.034-.079-.14-.067-.15.021z"/><path fill="#04294F" d="m1191.606 1587.958c-.049.34.046.721.087 1.061.041.338.097.675.148 1.012.109.719.176 1.46.374 2.162.033.118.211.094.213-.029.012-.717-.127-1.44-.24-2.145-.056-.348-.11-.698-.185-1.042-.073-.334-.114-.734-.28-1.034-.025-.044-.109-.04-.117.015z"/><path fill="#04294F" d="m1192.186 1591.979c.1-.176.058-.456.049-.651-.01-.234-.029-.467-.047-.7s-.039-.466-.064-.699c-.023-.222-.049-.445-.15-.647-.02-.04-.087-.031-.096.013-.05.227-.021.457.001.686.022.224.043.449.06.673.018.225.031.45.045.674.013.195-.006.483.106.651.024.034.075.038.096 0z"/><path fill="#04294F" d="m1192.015 1590.749c.016 0 .016-.025 0-.025s-.016.025 0 .025z"/><path fill="#04294F" d="m1191.565 1587.778c-.052.35.033.723.075 1.071.046.382.094.763.15 1.144.056.382.112.764.172 1.146.061.386.094.807.235 1.175.043.112.203.097.211-.029.023-.363-.059-.742-.112-1.1-.059-.397-.121-.793-.183-1.189-.06-.381-.125-.761-.196-1.139-.068-.359-.095-.759-.256-1.091-.02-.039-.09-.032-.096.012z"/><path fill="#04294F" d="m1191.768 1589.194c-.054.092-.044.194-.032.297.016.143.042.286.064.429.045.296.083.593.127.889.043.285.089.569.138.853.025.141.057.281.086.422.028.138.049.259.136.372.059.075.168.021.194-.051.047-.13.018-.263.002-.396-.017-.139-.03-.277-.052-.415-.047-.294-.101-.587-.162-.879-.059-.281-.127-.56-.19-.84-.032-.14-.062-.281-.1-.419-.029-.107-.061-.209-.151-.278-.017-.014-.048-.002-.06.016z"/><path fill="#04294F" d="m1191.467 1587.291c-.029.175-.002.336.022.51.033.236.058.473.089.709.051.388.107.775.162 1.162.058.404.118.807.182 1.21.034.216.066.434.104.649.016.089.033.177.051.266.011.054.022.109.034.163.018.09.031.104.038.043.036-.021.072-.041.108-.062-.005-.001-.01-.001-.015-.002.038.029.076.058.113.086-.002-.006-.005-.012-.007-.018-.017.041-.033.082-.05.123.003-.001.006-.003.009-.004.069-.033.066-.145 0-.179-.003-.002-.006-.003-.009-.005-.052-.027-.118-.014-.149.039-.003.005-.006.01-.009.016-.021.035-.023.084 0 .119.003.004.006.009.008.013.044.068.137.084.196.025.101-.099.084-.23.071-.362-.021-.214-.049-.426-.08-.638-.064-.434-.131-.868-.202-1.301-.071-.432-.146-.864-.235-1.293-.044-.214-.093-.427-.142-.64-.05-.22-.072-.446-.186-.644-.021-.039-.095-.036-.103.015z"/><path fill="#04294F" d="m1191.778 1588.852c-.074.094-.048.186-.039.301.011.156.028.31.038.466.019.3.044.601.083.899.078.597.11 1.226.308 1.797.046.132.236.109.244-.033.034-.603-.108-1.217-.197-1.812-.044-.297-.103-.594-.167-.887-.033-.152-.059-.306-.091-.459-.023-.112-.023-.209-.12-.279-.016-.012-.047-.008-.059.007z"/><path fill="#04294F" d="m1191.384 1587.216c-.017.388.046.77.091 1.155s.102.77.161 1.153c.06.385.118.77.186 1.153.065.369.109.77.273 1.11.048.099.179.038.188-.051.035-.364-.061-.75-.12-1.107-.063-.384-.132-.767-.196-1.15s-.128-.766-.2-1.148c-.072-.381-.122-.766-.248-1.134-.024-.074-.132-.061-.135.019z"/><path fill="#04294F" d="m1191.221 1584.685c-.023-.113-.056-.229-.043-.344.01-.088-.132-.089-.139 0-.017.21.044.448.089.652.045.207.092.413.143.619.106.425.24.849.405 1.255.037.092.175.06.153-.042-.096-.428-.205-.855-.317-1.28-.054-.205-.106-.409-.156-.615-.049-.204-.09-.437-.187-.624-.04.023-.08.047-.12.07.068.094.097.211.133.32.007.025.044.015.039-.011z"/><path fill="#04294F" d="m1199.896 1585.232c-.01.122.028.247.053.366.028.135.053.272.083.407.055.251.11.501.159.753.05.251.099.503.145.755.048.264.06.558.145.813.024.073.124.057.13-.018.021-.255-.044-.535-.079-.788-.036-.265-.077-.528-.129-.79-.052-.261-.108-.522-.174-.78-.034-.134-.076-.266-.117-.397-.036-.117-.066-.242-.137-.342-.024-.036-.075-.023-.079.021z"/><path fill="#04294F" d="m1199.973 1585.539c.004.015.009.031.013.046-.028-.028-.055-.055-.083-.083-.034.095.022.253.037.349.036.228.086.454.125.681.081.471.161.942.237 1.414.075.469.138.94.197 1.412.05.399.037.921.239 1.277.044.078.149.051.177-.023.155-.409.027-.979-.019-1.401-.048-.444-.114-.886-.186-1.326-.074-.454-.165-.906-.272-1.353-.053-.223-.108-.448-.171-.669-.041-.141-.067-.343-.206-.421-.048-.027-.122-.015-.148.039-.024.048-.04.078-.002.129.012.016.034.031.055.022.006-.003.013-.005.019-.008.045-.017.041-.082-.012-.085z"/><path fill="#F04E23" d="m2207.789 1692.61c.353 1.32 32.353 47.32 34.353 48.32s7 0 7 0l36.597-45.96 15.529-22.189 2.485-3.579h-109.823l14.534 24.557"/><path fill="#FFF" d="m2184.912 1657.121c23.723.86 47.56.249 71.292.135 12.966-.062 25.932-.141 38.897-.23 3.385-.023 8.762.986 11.978-.085.058-.019.74.07.828-.006.527-.455.275-1.95-.606-1.807-.299.048-.93 1.363-1.133 1.662-1.141 1.68-2.276 3.364-3.412 5.047-14.296 21.204-28.428 42.549-43.398 63.289-2.553 3.537-5.098 7.103-7.879 10.466-.718.868-1.497 2.05-2.429 2.714-.725.517.227-.061-.065.055-1.586.63-5.384.387-6.933-.457-.846-.461-.267-.251-.94-1.154-.987-1.321-1.909-2.694-2.842-4.053-2.805-4.093-5.542-8.233-8.272-12.376-8.408-12.755-16.693-25.592-24.962-38.438-3.634-5.645-7.261-11.295-10.883-16.948-1.436-2.241-2.871-4.482-4.304-6.724-.832-1.3-2.435-3.054-2.743-4.564-.118.899-.235 1.798-.353 2.697-.303.217-.606.434-.909.651 4.239-1.448 2.419-8.212-1.861-6.75-6.45 2.203-2.579 7.744-.178 11.499 3.131 4.894 6.265 9.786 9.404 14.675 8.12 12.648 16.262 25.282 24.476 37.87 5.804 8.895 11.409 18.058 17.797 26.554 3.23 4.295 8.623 5.34 13.839 4.469 3.669-.613 5.369-2.621 7.596-5.368 16.965-20.928 31.408-44.171 46.441-66.491 2.854-4.237 5.699-8.479 8.567-12.706 1.027-1.513 2.342-2.986 2.303-4.927-.064-3.245-2.974-5.585-5.941-5.889-4.024-.412-8.349.061-12.39.089-6.532.045-13.064.087-19.596.126-30.417.182-60.984 1.076-91.389-.027-4.505-.161-4.499 6.839 0 7.002z"/><path fill="#FFF" d="m2240.276 1744.93v74.822 10.678c0 7.721 12 7.734 12 0 0-24.941 0-49.881 0-74.822 0-3.559 0-7.119 0-10.678 0-7.721-12-7.734-12 0z"/><path fill="#FFF" d="m2290.142 1840.666c0-1.077-.606-2.058-1.573-2.533-5.454-2.681-24.216-11.202-42.427-11.202-18.404 0-36.261 8.485-41.478 11.185-.939.486-1.522 1.45-1.522 2.508v.481c0 1.561 1.265 2.826 2.826 2.826l40.174 2 41.174-2c1.561 0 2.826-1.265 2.826-2.826z"/><path fill="#FFF" d="m2282.142 1667.93s-21 31-26 39-8 13-6 14 8-2 12-8 28-41 28-44 0-10-4-6"/><path fill="#FFB400" d="m2605.142 1047.93v88.698 2.302c0 1.494-1 3-2 5-2.236 4.472-29 41-32 51s0 182 0 182 3 7 17 11 27 7 34 6 0-346 0-346z"/><path fill="#FFB400" d="m2645.142 1047.93v88.698 2.302c0 1.494 1 3 2 5 2.236 4.472 29 41 32 51s0 182 0 182-3 7-17 11-27 7-34 6 0-346 0-346z"/><path fill="#FFB400" d="m2615.446 1047.93h19.304v346s-9.609 2-19.609 0 0-324 0-324z"/><path fill="#F04E23" d="m2569.831 1235.059s10.31 10.872 54.31 10.872c42.012 0 56.31-10.872 56.31-10.872l-.31 79.872s-16.89 10.556-55 10c-33.889-.495-55-10-55-10z"/><path fill="#04294F" d="m2669.142 1255.93s-21.899 5-44 5c-21.898 0-44-5-44-5-2.2 0-4-1.8-4-4 0-2.072 1.597-3.79 3.621-3.982.248-.024.493.003.739.046 2.938.511 23.376 4.937 43.64 4.937 20.439 0 40.705-4.421 43.638-4.936.247-.043.494-.07.744-.046 2.023.194 3.619 1.91 3.619 3.982-.001 2.199-1.801 3.999-4.001 3.999z"/><path fill="#04294F" d="m2623.968 1274.719s-10.165.746-21.086-.618c-11.396-1.423-23.567-4.959-23.567-4.959-.546-.068-.937-.57-.868-1.116.068-.546.57-.937 1.116-.868 0 0 12.009 3.515 23.567 4.959 10.739 1.341 21.086.618 21.086.618.546.068.937.57.868 1.116-.068.545-.57.936-1.116.868z"/><path fill="#04294F" d="m2625.016 1283.329s-11.806.773-23.083-.41c-11.594-1.216-22.666-4.388-22.666-4.388-.547-.057-.948-.552-.89-1.099.057-.547.552-.948 1.099-.89 0 0 11.072 3.172 22.666 4.388 11.277 1.182 23.083.41 23.083.41.547.057.948.552.89 1.099-.057.547-.552.947-1.099.89z"/><path fill="#04294F" d="m2623.028 1293.187s-11.05.896-22.09-.216c-11.343-1.143-22.683-4.296-22.683-4.296-.547-.055-.95-.548-.895-1.095.055-.547.548-.95 1.095-.895 0 0 10.346 3.053 21.688 4.196 11.04 1.113 23.085.317 23.085.317.547.055.95.548.895 1.095-.055.546-.548.949-1.095.894z"/><ellipse cx="2625.142" cy="1085.93" fill="#F04E23" rx="20" ry="4"/><path fill="#F04E23" d="m2605.142 1085.93v-38h40v38"/><ellipse cx="2625.142" cy="1047.93" fill="#F04E23" rx="20" ry="3"/><path fill="#04294F" d="m2606.265 1049.343c.761.527 1.832.755 2.717.997.949.259 1.915.471 2.878.671 1.937.401 3.889.691 5.858.878 1.963.187 3.934.279 5.906.274 2.028-.005 3.992-.176 5.993-.483.375-.057.285-.677-.089-.66-3.889.18-7.81.243-11.692-.12-1.957-.183-3.911-.456-5.845-.807-.932-.17-1.856-.375-2.782-.574-.909-.196-1.922-.542-2.854-.51-.185.005-.235.234-.09.334z"/><path fill="#04294F" d="m2644.553 1048.158c-1.41.593-2.87 1.081-4.358 1.435s-3.005.522-4.51.784c-.177.031-.123.291.041.299 1.549.083 3.114-.197 4.612-.563 1.513-.37 2.976-.885 4.392-1.534.236-.107.065-.522-.177-.421z"/><path fill="#FFF" d="m2649.789 1183.83c-5.95-10.914-10.374-22.101-13.19-33.357-.081-.325-.292-1.174-.226-1.491 1.052-.319 2.19.557 2.758 1.299 3.278 4.279 5.091 8.891 6.877 13.457 2.289 5.849 4.578 11.698 6.867 17.547.389.994.766 2.084.111 2.943-.654.857-2.667.575-3.197-.398z"/><path fill="#FFF" d="m2655.142 1206.93c-.077-1.571.332-3.98.853-5.684.424-1.387.94-2.788 1.896-3.878s2.443-1.82 3.861-1.515c1.32.284 2.311 1.372 3.049 2.502 2.82 4.317 3.137 10.151.801 14.748-.91 1.791-2.448 3.534-4.455 3.632-1.741.086-3.332-1.14-4.209-2.647s-1.186-3.266-1.515-4.978c-.213-1.105-.281-1.18-.281-2.18"/><path fill="#FFF" d="m2661.889 1329.084c.001-1.219.372-2.844 1.591-2.871 1.004-.022 1.571 1.127 1.832 2.096 1.188 4.401 1.281 9.012 1.367 13.57.111 5.894.222 11.788.334 17.683.06 3.18 1.019 13.755-3.97 13.712-4.487-.038-2.34-5.452-1.862-7.983 2.184-11.557.694-24.455.708-36.207z"/><path fill="#FFB400" d="m903.142 1044.93v88.698 2.302c0 1.494-1 3-2 5-2.236 4.472-29 41-32 51s0 182 0 182 3 7 17 11 27 7 34 6 0-346 0-346z"/><path fill="#FFB400" d="m943.142 1044.93v88.698 2.302c0 1.494 1 3 2 5 2.236 4.472 29 41 32 51s0 182 0 182-3 7-17 11-27 7-34 6 0-346 0-346z"/><path fill="#FFB400" d="m913.446 1044.93h19.304v346s-9.609 2-19.609 0 0-324 0-324z"/><path fill="#F04E23" d="m867.831 1232.059s10.31 10.872 54.31 10.872c42.012 0 56.31-10.872 56.31-10.872l-.31 79.872s-16.89 10.556-55 10c-33.889-.495-55-10-55-10z"/><path fill="#04294F" d="m967.142 1252.93s-21.899 5-44 5c-21.898 0-44-5-44-5-2.2 0-4-1.8-4-4 0-2.072 1.597-3.79 3.621-3.982.248-.024.493.003.739.046 2.937.511 23.376 4.937 43.64 4.937 20.439 0 40.705-4.421 43.638-4.936.247-.043.494-.07.744-.046 2.023.194 3.619 1.91 3.619 3.982-.001 2.199-1.801 3.999-4.001 3.999z"/><path fill="#04294F" d="m921.968 1271.719s-10.165.746-21.086-.618c-11.395-1.423-23.567-4.959-23.567-4.959-.546-.068-.937-.57-.868-1.116.068-.546.57-.937 1.116-.868 0 0 12.009 3.515 23.567 4.959 10.739 1.341 21.086.618 21.086.618.546.068.937.57.868 1.116-.068.545-.57.936-1.116.868z"/><path fill="#04294F" d="m923.016 1280.329s-11.807.773-23.083-.41c-11.594-1.216-22.666-4.388-22.666-4.388-.547-.057-.948-.552-.89-1.099.057-.547.552-.948 1.099-.89 0 0 11.072 3.172 22.666 4.388 11.277 1.182 23.083.41 23.083.41.547.057.948.552.89 1.099-.057.547-.552.947-1.099.89z"/><path fill="#04294F" d="m921.028 1290.187s-11.05.896-22.09-.216c-11.343-1.143-22.683-4.296-22.683-4.296-.547-.055-.95-.548-.895-1.095.055-.547.548-.95 1.095-.895 0 0 10.346 3.053 21.689 4.196 11.04 1.113 23.085.317 23.085.317.547.055.95.548.895 1.095-.056.546-.548.949-1.096.894z"/><ellipse cx="923.142" cy="1082.93" fill="#F04E23" rx="20" ry="4"/><path fill="#F04E23" d="m903.142 1082.93v-38h40v38"/><ellipse cx="923.142" cy="1044.93" fill="#F04E23" rx="20" ry="3"/><path fill="#04294F" d="m904.265 1046.343c.761.527 1.832.755 2.718.997.949.259 1.915.471 2.878.671 1.937.401 3.889.691 5.858.878 1.963.187 3.934.279 5.906.274 2.028-.005 3.992-.176 5.993-.483.375-.057.286-.677-.089-.66-3.889.18-7.81.243-11.692-.12-1.957-.183-3.911-.456-5.845-.807-.932-.17-1.856-.375-2.782-.574-.909-.196-1.922-.542-2.853-.51-.187.005-.237.234-.092.334z"/><path fill="#04294F" d="m942.553 1045.158c-1.409.593-2.87 1.081-4.358 1.435s-3.005.522-4.51.784c-.177.031-.123.291.04.299 1.549.083 3.114-.197 4.612-.563 1.513-.37 2.976-.885 4.392-1.534.236-.107.066-.522-.176-.421z"/><path fill="#FFF" d="m947.789 1180.83c-5.951-10.914-10.374-22.101-13.19-33.357-.081-.325-.292-1.174-.226-1.491 1.052-.319 2.19.557 2.758 1.299 3.278 4.279 5.091 8.891 6.878 13.457 2.289 5.849 4.578 11.698 6.867 17.547.389.994.766 2.084.112 2.943-.656.857-2.669.575-3.199-.398z"/><path fill="#FFF" d="m953.142 1203.93c-.077-1.571.332-3.98.853-5.684.423-1.387.94-2.788 1.896-3.878s2.443-1.82 3.861-1.515c1.319.284 2.311 1.372 3.049 2.502 2.82 4.317 3.137 10.151.801 14.748-.91 1.791-2.448 3.534-4.455 3.632-1.741.086-3.332-1.14-4.209-2.647s-1.186-3.266-1.515-4.978c-.213-1.105-.281-1.18-.281-2.18"/><path fill="#FFF" d="m959.889 1326.084c.001-1.219.372-2.844 1.591-2.871 1.004-.022 1.57 1.127 1.832 2.096 1.188 4.401 1.281 9.012 1.367 13.57.111 5.894.222 11.788.334 17.683.06 3.18 1.019 13.755-3.97 13.712-4.487-.038-2.34-5.452-1.862-7.983 2.185-11.557.694-24.455.708-36.207z"/><path fill="#04294F" d="m2440.018 1060.344c.27 25.082-.249 87.918-.351 99.726-.011 1.338-.261 2.649-.737 3.899-.61 1.602-1.649 4.225-3.28 8.03-3 7-33 44-34 49s0 13 0 24c0 9.226 7.035 97.947 9.304 126.321.413 5.162 4.294 9.363 9.406 10.188 9.647 1.558 25.881 3.849 41.29 4.491 24 1 19-69 19-69l-18.192-257.565c-.443-6.278-5.956-10.967-12.224-10.397-5.834.531-10.279 5.449-10.216 11.307z"/><path fill="#04294F" d="m2482.275 1059.992c-.279 24.894.247 88.487.347 100.155.011 1.271.243 2.522.693 3.71.603 1.59 1.653 4.247 3.323 8.143 3 7 33 44 34 49s0 13 0 24c0 9.259-7.085 98.583-9.328 126.623-.398 4.983-4.151 9.038-9.085 9.838-9.609 1.558-26.019 3.89-41.587 4.539-24 1-19-69-19-69l18.22-257.953c.428-6.065 5.755-10.595 11.81-10.045l.736.067c5.637.513 9.934 5.263 9.871 10.923z"/><ellipse cx="2461.15" cy="1055" fill="#04294F" rx="21.5" ry="7"/><path fill="#FFB400" d="m2425.314 1282.704s-9.664.296-9.664-7.704 6-16 14-22c7.92-5.94 16-10 35-10s32 7 37 12 7 11 9 17 0 10-1 11-5 4-11 2-72-2-72-2z"/><ellipse cx="2463.15" cy="1217.5" fill="#FFB400" rx="21.5" ry="6.5"/><circle cx="2463.65" cy="1294" r="39" fill="#F04E23"/><path fill="#FFF" d="m2444.482 1058.19c2.045.766 4.324 1.048 6.486 1.304 2.233.265 4.477.434 6.724.508 4.499.148 9.013-.084 13.472-.703 2.534-.352 5.054-.866 7.496-1.637.328-.103.188-.557-.139-.505-4.406.703-8.799 1.454-13.258 1.733-4.409.276-8.842.185-13.236-.272-2.489-.259-4.986-.784-7.483-.882-.276-.01-.292.367-.062.454z"/><path fill="#FFF" d="m2447.302 1061.05c.064 0 .064-.1 0-.1s-.064.1 0 .1z"/><path fill="#FFF" d="m2444.148 1068.607c3.879 2.015 8.908 2.543 13.213 2.774 4.586.246 9.236-.043 13.812-.367 1.906-.135 1.945-3.08 0-3-4.381.181-8.739.398-13.125.174-2.139-.109-4.275-.266-6.388-.627-2.188-.374-4.251-1.102-6.402-1.589-1.528-.346-2.622 1.849-1.11 2.635z"/><path fill="#FFF" d="m2475.733 1179.468c-4.74-6.713-4.492-14.972-4.196-22.737.726-19.005.901-38.029.523-57.048-.018-.889.103-2.329.745-3.034s2.111-.933 2.729-.205c.242.285.303.645.356.991 4.185 27.51-4.232 56.281 4.559 82.815.509 1.536-1.915 2.533-3.08 1.269-.617-.672-1.164-1.383-1.636-2.051z"/><path fill="#FFF" d="m2502.21 1216.221c3.317 6.998 2.995 15.253 6.058 22.365.388.902.973 1.891 1.944 2.034 1.438.213 2.332-1.503 2.664-2.918 2.6-11.09-1.26-23.457-9.708-31.099-2.403-2.173-6.806-4.89-6.72-.135.059 3.263 4.411 6.902 5.762 9.753z"/><path fill="#FFF" d="m2500.65 1365c5-1.292 5.756-11.039 6.333-18.338.628-7.943 1.174-15.888 1.719-23.833.347-5.049.706-10.099 1.04-15.148.126-1.907.678-4.481.306-6.731-.197-1.189-2.802-1.291-3.269-.135-1.956 4.851-1.021 11.963-1.444 16.009-1.147 10.967-2.293 21.934-3.44 32.901-.328 3.134-.246 6.88-.983 9.4-1.121 3.841-1.262 5.875-.262 5.875z"/><path fill="#04294F" d="m2440.018 668.344c.27 25.082-.249 87.918-.351 99.726-.011 1.338-.261 2.649-.737 3.899-.61 1.602-1.649 4.225-3.28 8.03-3 7-33 44-34 49s0 13 0 24c0 9.226 7.035 97.947 9.304 126.321.413 5.162 4.294 9.363 9.406 10.188 9.647 1.558 25.881 3.849 41.29 4.491 24 1 19-69 19-69l-18.192-257.565c-.443-6.278-5.956-10.966-12.224-10.397-5.834.531-10.279 5.449-10.216 11.307z"/><path fill="#04294F" d="m2482.275 667.992c-.279 24.894.247 88.487.347 100.155.011 1.27.243 2.522.693 3.71.603 1.59 1.653 4.247 3.323 8.143 3 7 33 44 34 49s0 13 0 24c0 9.259-7.085 98.583-9.328 126.623-.398 4.983-4.151 9.038-9.085 9.838-9.609 1.558-26.019 3.89-41.587 4.539-24 1-19-69-19-69l18.22-257.953c.428-6.065 5.755-10.595 11.81-10.045l.736.067c5.637.513 9.934 5.263 9.871 10.923z"/><ellipse cx="2461.15" cy="663" fill="#04294F" rx="21.5" ry="7"/><path fill="#FFB400" d="m2425.314 890.704s-9.664.296-9.664-7.704 6-16 14-22c7.92-5.94 16-10 35-10s32 7 37 12 7 11 9 17 0 10-1 11-5 4-11 2-72-2-72-2z"/><ellipse cx="2463.15" cy="825.5" fill="#FFB400" rx="21.5" ry="6.5"/><circle cx="2463.65" cy="902" r="39" fill="#F04E23"/><path fill="#FFF" d="m2444.482 666.19c2.045.766 4.324 1.048 6.486 1.304 2.233.265 4.477.434 6.724.508 4.499.148 9.013-.084 13.472-.703 2.534-.352 5.054-.866 7.496-1.637.328-.103.188-.557-.139-.505-4.406.703-8.799 1.454-13.258 1.733-4.409.276-8.842.185-13.236-.272-2.489-.259-4.986-.784-7.483-.882-.276-.01-.292.367-.062.454z"/><path fill="#FFF" d="m2447.302 669.05c.064 0 .064-.1 0-.1s-.064.1 0 .1z"/><path fill="#FFF" d="m2444.148 676.607c3.879 2.015 8.908 2.543 13.213 2.774 4.586.246 9.236-.043 13.812-.367 1.906-.135 1.945-3.081 0-3-4.381.181-8.739.398-13.125.174-2.139-.109-4.275-.266-6.388-.627-2.188-.374-4.251-1.102-6.402-1.589-1.528-.346-2.622 1.849-1.11 2.635z"/><path fill="#FFF" d="m2475.733 787.468c-4.74-6.713-4.492-14.972-4.196-22.738.726-19.005.901-38.029.523-57.048-.018-.889.103-2.329.745-3.034s2.111-.933 2.729-.205c.242.285.303.645.356.991 4.185 27.51-4.232 56.281 4.559 82.815.509 1.536-1.915 2.533-3.08 1.269-.617-.671-1.164-1.382-1.636-2.05z"/><path fill="#FFF" d="m2502.21 824.221c3.317 6.997 2.995 15.253 6.058 22.365.388.902.973 1.891 1.944 2.034 1.438.213 2.332-1.503 2.664-2.918 2.6-11.09-1.26-23.457-9.708-31.099-2.403-2.173-6.806-4.89-6.72-.135.059 3.263 4.411 6.902 5.762 9.753z"/><path fill="#FFF" d="m2500.65 973c5-1.292 5.756-11.039 6.333-18.338.628-7.943 1.174-15.888 1.719-23.833.347-5.049.706-10.099 1.04-15.148.126-1.907.678-4.481.306-6.731-.197-1.189-2.802-1.291-3.269-.135-1.956 4.851-1.021 11.963-1.444 16.009-1.147 10.967-2.293 21.934-3.44 32.901-.328 3.133-.246 6.88-.983 9.4-1.121 3.841-1.262 5.875-.262 5.875z"/><path fill="#04294F" d="m1053.018 669.344c.27 25.082-.249 87.918-.351 99.726-.012 1.338-.261 2.649-.737 3.899-.609 1.602-1.649 4.225-3.28 8.03-3 7-33 44-34 49s0 13 0 24c0 9.226 7.035 97.947 9.304 126.321.413 5.162 4.294 9.363 9.406 10.188 9.647 1.558 25.881 3.849 41.29 4.491 24 1 19-69 19-69l-18.192-257.565c-.443-6.278-5.956-10.966-12.224-10.397-5.834.531-10.279 5.449-10.216 11.307z"/><path fill="#04294F" d="m1095.275 668.992c-.279 24.894.247 88.487.347 100.155.011 1.27.243 2.522.693 3.71.603 1.59 1.653 4.247 3.323 8.143 3 7 33 44 34 49s0 13 0 24c0 9.259-7.085 98.583-9.328 126.623-.399 4.983-4.151 9.038-9.085 9.838-9.609 1.558-26.019 3.89-41.587 4.539-24 1-19-69-19-69l18.22-257.953c.428-6.065 5.755-10.595 11.81-10.045l.736.067c5.637.513 9.934 5.263 9.871 10.923z"/><ellipse cx="1074.15" cy="664" fill="#04294F" rx="21.5" ry="7"/><path fill="#FFB400" d="m1038.314 891.704s-9.664.296-9.664-7.704 6-16 14-22c7.92-5.94 16-10 35-10s32 7 37 12 7 11 9 17 0 10-1 11-5 4-11 2-72-2-72-2z"/><ellipse cx="1076.15" cy="826.5" fill="#FFB400" rx="21.5" ry="6.5"/><circle cx="1076.65" cy="903" r="39" fill="#F04E23"/><path fill="#FFF" d="m1057.482 667.19c2.045.766 4.324 1.048 6.486 1.304 2.233.265 4.477.434 6.724.508 4.499.148 9.013-.084 13.472-.703 2.534-.352 5.054-.866 7.496-1.637.328-.103.188-.557-.139-.505-4.406.703-8.799 1.454-13.258 1.733-4.409.276-8.842.185-13.236-.272-2.489-.259-4.985-.784-7.483-.882-.276-.01-.292.367-.062.454z"/><path fill="#FFF" d="m1060.302 670.05c.064 0 .064-.1 0-.1s-.064.1 0 .1z"/><path fill="#FFF" d="m1057.148 677.607c3.879 2.015 8.908 2.543 13.213 2.774 4.586.246 9.236-.043 13.812-.367 1.907-.135 1.945-3.081 0-3-4.381.181-8.739.398-13.125.174-2.139-.109-4.275-.266-6.388-.627-2.188-.374-4.251-1.102-6.402-1.589-1.528-.346-2.622 1.849-1.11 2.635z"/><path fill="#FFF" d="m1088.734 788.468c-4.74-6.713-4.492-14.972-4.196-22.738.726-19.005.901-38.029.523-57.048-.018-.889.103-2.329.745-3.034s2.111-.933 2.729-.205c.242.285.303.645.356.991 4.185 27.51-4.232 56.281 4.559 82.815.509 1.536-1.914 2.533-3.08 1.269-.618-.671-1.165-1.382-1.636-2.05z"/><path fill="#FFF" d="m1115.21 825.221c3.317 6.997 2.995 15.253 6.058 22.365.388.902.973 1.891 1.944 2.034 1.438.213 2.332-1.503 2.664-2.918 2.6-11.09-1.26-23.457-9.708-31.099-2.403-2.173-6.806-4.89-6.72-.135.059 3.263 4.411 6.902 5.762 9.753z"/><path fill="#FFF" d="m1113.65 974c5-1.292 5.756-11.039 6.333-18.338.628-7.943 1.174-15.888 1.719-23.833.347-5.049.706-10.099 1.04-15.148.126-1.907.678-4.481.306-6.731-.197-1.189-2.802-1.291-3.269-.135-1.956 4.851-1.021 11.963-1.444 16.009-1.147 10.967-2.293 21.934-3.44 32.901-.328 3.133-.246 6.88-.983 9.4-1.121 3.841-1.262 5.875-.262 5.875z"/><path fill="#04294F" d="m2308.466 1095.129h-28.448c-6.954 0-12.592-5.638-12.592-12.592v-2.726c0-6.954 5.638-12.592 12.592-12.592h28.448c6.954 0 12.592 5.638 12.592 12.592v2.726c0 6.954-5.638 12.592-12.592 12.592z"/><path fill="#04294F" d="m2342.599 1212.141v19.343c0 .475-.149.941-.439 1.398-3.161 5.047-23.216 8.933-47.478 8.933-25.502 0-46.348-4.295-47.83-9.711v-19.963c0-.994.035-1.983.101-2.959-.009-.15-.018-.299-.026-.448-.901-20.552 6.132-31.103 15.804-48.247 6.876-12.186 9.513-31.722 10.498-46.95v-24.706h42.994v24.706c.98 15.228 3.623 34.764 10.498 46.95 9.671 17.145 16.705 27.695 15.8 48.247-.004.149-.013.299-.022.448.065.977.1 1.966.1 2.959z"/><path fill="#04294F" d="m2342.599 1231.484v145.731h-95.747v-145.111c1.481 5.416 22.328 9.711 47.83 9.711 24.262 0 44.317-3.886 47.478-8.933.289-.457.439-.923.439-1.398z"/><ellipse cx="2294.681" cy="1378.031" fill="#04294F" rx="48.048" ry="11.545"/><ellipse cx="2294.681" cy="1289.513" fill="#04294F" rx="47.918" ry="10.331"/><path fill="#FFB400" d="m2246.852 1230.865v1.24c-.062-.207-.088-.413-.088-.62 0-.075.004-.145.013-.22.009-.132.035-.269.075-.4z"/><path fill="#FFB400" d="m2343.039 1232.882c-3.19 5.047-23.429 8.933-47.914 8.933-25.736 0-46.773-4.295-48.268-9.711v-.84h-.444v84.885c-.057.205-.089.411-.089.619 0 5.706 21.65 10.331 48.357 10.331s48.357-4.625 48.357-10.331c0-.073-.006-.147-.013-.22h.013v-83.666z"/><path fill="#FFB400" d="m2312.705 1070.367c-3.964 1.394-10.042 3.016-17.584 3.077-7.986.065-14.396-1.647-18.464-3.077v-30.263c0-3.923 3.181-7.104 7.104-7.104h21.84c3.923 0 7.104 3.181 7.104 7.104z"/><path fill="#FFF" d="m2315.077 1177.44c-.703.313-1.727-.218-2.99-1.479-.316-.315-.646-.676-.991-1.08-.338-.406-.676-.862-1.031-1.357-.702-.993-1.477-2.141-2.203-3.469-.372-.661-.75-1.359-1.134-2.093-.382-.734-.734-1.516-1.108-2.323-.76-1.612-1.444-3.382-2.144-5.257-.348-.938-.651-1.916-.975-2.911-.157-.5-.316-1.004-.476-1.514-.141-.515-.284-1.035-.427-1.559-.139-.526-.279-1.057-.421-1.592s-.277-1.077-.392-1.626c-.242-1.097-.478-2.214-.706-3.345-.197-1.137-.381-2.263-.553-3.373-.092-.554-.162-1.108-.223-1.658-.062-.55-.124-1.095-.185-1.636-.056-.541-.112-1.077-.167-1.608-.035-.533-.07-1.061-.105-1.583-.058-1.046-.13-2.066-.146-3.067-.027-2.001-.031-3.899.094-5.676.056-.888.101-1.744.191-2.567.092-.823.192-1.611.299-2.361.196-1.501.502-2.853.797-4.032.152-.59.302-1.137.469-1.638.175-.501.352-.957.532-1.365.721-1.633 1.483-2.499 2.251-2.462s1.471.969 2.085 2.588c.153.405.301.853.443 1.341.148.488.306 1.017.45 1.582.298 1.131.544 2.412.851 3.818.145.703.284 1.439.417 2.203.142.762.29 1.555.442 2.377.269 1.641.608 3.383.902 5.215.149.916.337 1.85.495 2.806.079.478.159.961.24 1.448.09.486.182.976.274 1.471.356 1.978.725 4.026 1.102 6.124.408 2.092.807 4.135 1.191 6.107.093.495.186.985.278 1.471.101.484.202.963.301 1.437.2.948.362 1.887.555 2.794.39 1.814.705 3.56 1.049 5.187.155.821.305 1.613.448 2.375.153.761.29 1.496.41 2.204.224 1.422.458 2.705.59 3.867.07.58.115 1.129.154 1.638.045.506.069.977.073 1.41.014 1.732-.303 2.855-1.006 3.168z"/><path fill="#FFF" d="m2325.525 1211.863c-.767-.063-1.478-.417-2.109-.971-.314-.277-.611-.604-.897-.973-.285-.369-.537-.778-.791-1.222-.488-.888-.918-1.909-1.262-3.023-.084-.279-.176-.563-.25-.853-.072-.289-.145-.585-.219-.886-.13-.602-.259-1.222-.344-1.863-.105-.639-.164-1.269-.215-1.883-.017-.309-.033-.614-.049-.911-.013-.299-.009-.598-.01-.889.003-1.166.116-2.268.323-3.26.113-.499.235-.964.4-1.4.166-.436.354-.836.574-1.192.442-.714 1.018-1.26 1.733-1.545.715-.284 1.503-.274 2.328.019.414.146.834.363 1.244.652.412.288.835.641 1.227 1.064.803.84 1.542 1.945 2.154 3.252.155.326.289.668.424 1.018.137.35.259.712.366 1.086.228.744.393 1.531.524 2.343.112.815.184 1.615.183 2.393.007.388-.004.771-.033 1.145-.027.375-.056.74-.108 1.098-.203 1.429-.586 2.702-1.109 3.739-.251.519-.553.98-.863 1.376-.308.396-.646.727-1 .987-.704.522-1.454.762-2.221.699z"/><path fill="#FFF" d="m2329.4 1369.957c-2.491.058-4.877-15.782-5.33-35.379s1.199-35.53 3.69-35.588c2.491-.057 4.877 15.782 5.33 35.379s-1.199 35.53-3.69 35.588z"/><path fill="#FFF" d="m2309.458 1091.9c.069.17-.271.48-.962.903-.173.106-.367.218-.583.337-.218.111-.46.216-.721.332-.524.224-1.122.492-1.81.695-.344.107-.704.22-1.079.337-.378.106-.776.191-1.188.289-.822.21-1.714.334-2.654.485-.47.061-.954.104-1.448.155-.494.057-.999.082-1.513.104-1.029.063-2.092.052-3.18.036-.542-.025-1.078-.05-1.606-.074-.527-.029-1.043-.082-1.552-.124-.509-.04-1.005-.099-1.491-.16-.485-.063-.962-.114-1.422-.188-1.846-.275-3.488-.603-4.854-.931-1.366-.326-2.459-.648-3.202-.931-.744-.283-1.14-.525-1.111-.705.03-.181.483-.283 1.277-.314.793-.031 1.926.008 3.314.095 1.388.089 3.031.22 4.844.356.454.04.918.06 1.392.096.474.034.957.07 1.448.091.491.023.991.061 1.497.08s1.019.038 1.539.057c1.037.014 2.05.044 3.023.018.488-.004.967-.005 1.433-.035.468-.02.925-.04 1.372-.059.887-.079 1.74-.114 2.525-.221.394-.047.779-.078 1.145-.126.365-.054.716-.106 1.051-.155.677-.077 1.276-.208 1.815-.29.271-.04.523-.078.755-.112.229-.044.441-.081.634-.109.774-.116 1.243-.102 1.312.068z"/><path fill="#FFF" d="m2290.239 1076.368c-.017.182-.249.335-.661.453-.412.121-1.002.197-1.728.223-.726.028-1.587-.006-2.537-.103-.474-.054-.972-.114-1.483-.205-.512-.084-1.038-.194-1.575-.315-.535-.13-1.056-.264-1.552-.416-.498-.145-.971-.312-1.42-.473-.895-.333-1.681-.686-2.32-1.032s-1.135-.676-1.45-.966c-.316-.289-.458-.529-.391-.7s.333-.257.754-.268c.42-.009.999.047 1.693.157.694.112 1.507.268 2.4.462.445.098.913.2 1.398.307.482.112.982.227 1.493.346.511.121 1.01.239 1.492.353.481.12.946.235 1.389.345.886.223 1.684.443 2.355.65.671.209 1.215.415 1.587.61.371.195.572.39.556.572z"/><path fill="#FFF" d="m2318.758 1073.207c.08.165.019.386-.167.65-.185.265-.5.561-.924.867-.423.307-.959.614-1.58.898-.312.137-.642.277-.994.395-.349.125-.719.231-1.099.331-.382.092-.758.173-1.125.229-.365.062-.723.095-1.063.122-.681.044-1.299.027-1.816-.044-.518-.069-.936-.181-1.224-.327-.288-.144-.447-.31-.455-.493-.007-.183.137-.366.397-.538.26-.171.635-.342 1.093-.509.459-.165 1.001-.334 1.6-.5.299-.082.613-.167.938-.256.326-.083.661-.174 1.007-.257.344-.091.682-.169 1.008-.25.329-.076.646-.149.948-.218.607-.137 1.164-.244 1.646-.316.483-.07.894-.096 1.204-.069.312.028.526.12.606.285z"/><path fill="#F04E23" d="m2309.23 1038.899c.218.347.062.916-.468 1.629-.529.709-1.44 1.555-2.717 2.384-1.272.834-2.926 1.624-4.869 2.221-.974.285-2.016.541-3.116.696-1.097.178-2.249.242-3.428.258-.589-.009-1.172-.033-1.745-.067-.571-.061-1.135-.107-1.683-.196-1.096-.174-2.142-.404-3.111-.707-.973-.286-1.869-.644-2.683-1.02-.815-.374-1.542-.785-2.182-1.193-1.278-.824-2.19-1.668-2.721-2.377-.532-.712-.688-1.28-.472-1.628.451-.711 2.235-.385 4.816.108.639.117 1.339.245 2.09.382.744.127 1.53.262 2.357.36.824.115 1.688.194 2.58.265.446.037.901.043 1.36.077.46.009.927.017 1.399.026.945-.016 1.869-.024 2.761-.099.894-.052 1.753-.156 2.579-.254 1.646-.222 3.148-.491 4.438-.747 2.576-.498 4.365-.827 4.815-.118z"/><path fill="#04294F" d="m774.466 703.129h-28.448c-6.955 0-12.592-5.638-12.592-12.592v-2.726c0-6.955 5.638-12.592 12.592-12.592h28.448c6.954 0 12.592 5.638 12.592 12.592v2.726c0 6.954-5.638 12.592-12.592 12.592z"/><path fill="#04294F" d="m808.599 820.141v19.343c0 .475-.149.941-.44 1.398-3.161 5.047-23.216 8.933-47.478 8.933-25.502 0-46.348-4.295-47.83-9.711v-19.963c0-.994.035-1.983.101-2.959-.009-.15-.018-.299-.026-.448-.901-20.552 6.132-31.102 15.804-48.247 6.876-12.186 9.513-31.722 10.498-46.95v-24.706h42.994v24.706c.98 15.228 3.622 34.764 10.498 46.95 9.671 17.145 16.705 27.695 15.8 48.247-.004.15-.013.299-.022.448.066.977.101 1.966.101 2.959z"/><path fill="#04294F" d="m808.599 839.484v145.731h-95.747v-145.111c1.481 5.416 22.328 9.711 47.83 9.711 24.262 0 44.317-3.886 47.478-8.933.29-.457.439-.923.439-1.398z"/><ellipse cx="760.681" cy="986.031" fill="#04294F" rx="48.048" ry="11.545"/><ellipse cx="760.681" cy="897.513" fill="#04294F" rx="47.918" ry="10.331"/><path fill="#FFB400" d="m712.852 838.865v1.24c-.062-.207-.088-.413-.088-.62 0-.075.004-.145.013-.22.009-.132.035-.269.075-.4z"/><path fill="#FFB400" d="m809.039 840.882c-3.19 5.047-23.429 8.933-47.914 8.933-25.736 0-46.773-4.295-48.268-9.711v-.84h-.444v84.885c-.057.205-.089.411-.089.619 0 5.706 21.65 10.331 48.357 10.331s48.357-4.625 48.357-10.331c0-.073-.006-.147-.013-.22h.013v-83.666z"/><path fill="#FFB400" d="m778.705 678.367c-3.964 1.394-10.042 3.016-17.584 3.077-7.986.065-14.396-1.647-18.464-3.077v-30.263c0-3.923 3.18-7.104 7.104-7.104h21.84c3.923 0 7.104 3.18 7.104 7.104z"/><path fill="#FFF" d="m781.077 785.44c-.703.313-1.727-.218-2.99-1.479-.316-.315-.646-.676-.991-1.08-.338-.406-.676-.862-1.031-1.357-.702-.993-1.477-2.142-2.204-3.47-.371-.661-.75-1.359-1.134-2.093-.382-.734-.734-1.516-1.108-2.323-.76-1.612-1.444-3.382-2.144-5.257-.348-.938-.651-1.916-.975-2.911-.157-.5-.316-1.004-.476-1.514-.141-.515-.284-1.035-.427-1.559-.139-.526-.279-1.057-.421-1.592s-.277-1.076-.392-1.626c-.242-1.097-.478-2.214-.706-3.345-.197-1.137-.381-2.263-.553-3.373-.092-.554-.162-1.108-.224-1.658s-.124-1.095-.185-1.636c-.056-.541-.112-1.077-.167-1.608-.035-.533-.07-1.061-.105-1.583-.058-1.046-.13-2.066-.146-3.067-.027-2.001-.031-3.899.094-5.676.056-.888.101-1.744.191-2.567.092-.823.192-1.611.298-2.361.196-1.501.502-2.853.797-4.032.152-.59.302-1.137.469-1.638.174-.501.352-.957.532-1.365.721-1.633 1.483-2.499 2.251-2.462s1.471.969 2.085 2.588c.153.405.301.853.443 1.341.148.488.306 1.017.45 1.582.298 1.131.544 2.412.851 3.818.144.703.284 1.439.417 2.203.142.762.29 1.555.443 2.377.269 1.641.608 3.383.901 5.215.149.916.338 1.85.495 2.806.079.478.159.961.24 1.448.09.486.182.976.274 1.471.356 1.978.725 4.026 1.102 6.124.408 2.092.807 4.135 1.191 6.107.093.495.186.985.278 1.471.101.484.202.963.301 1.437.2.948.362 1.887.555 2.794.39 1.814.705 3.56 1.049 5.187.155.821.305 1.613.449 2.376.153.761.29 1.496.41 2.204.224 1.422.458 2.705.59 3.867.07.58.115 1.129.154 1.638.045.506.069.977.073 1.41.016 1.732-.301 2.855-1.004 3.168z"/><path fill="#FFF" d="m791.525 819.863c-.767-.063-1.478-.417-2.109-.971-.314-.277-.611-.604-.897-.973-.285-.369-.537-.778-.791-1.222-.487-.888-.918-1.909-1.262-3.023-.084-.279-.175-.563-.25-.853-.072-.289-.145-.585-.219-.886-.13-.602-.258-1.222-.344-1.863-.105-.639-.164-1.269-.215-1.883-.017-.309-.033-.613-.049-.911-.013-.299-.009-.598-.01-.889.003-1.166.117-2.268.323-3.26.113-.499.235-.964.4-1.4.166-.436.354-.836.574-1.192.442-.714 1.018-1.261 1.733-1.545s1.503-.274 2.328.019c.414.146.834.363 1.244.652.412.288.835.641 1.227 1.064.804.84 1.542 1.945 2.154 3.252.154.326.289.668.424 1.018.137.35.259.712.366 1.086.228.744.393 1.531.524 2.342.112.815.184 1.615.183 2.393.007.388-.004.771-.033 1.145-.027.375-.056.74-.108 1.098-.203 1.429-.586 2.702-1.109 3.739-.251.519-.553.98-.863 1.376-.308.396-.646.727-.999.987-.705.523-1.455.762-2.222.7z"/><path fill="#FFF" d="m795.4 977.957c-2.491.058-4.877-15.782-5.33-35.379s1.199-35.53 3.69-35.587 4.877 15.782 5.33 35.379c.453 19.596-1.199 35.529-3.69 35.587z"/><path fill="#FFF" d="m775.458 699.9c.069.17-.271.48-.962.903-.173.106-.367.218-.583.337-.218.111-.461.216-.721.331-.524.224-1.122.492-1.81.695-.344.107-.703.22-1.078.337-.378.106-.776.191-1.188.289-.822.211-1.714.334-2.654.485-.47.061-.954.104-1.448.155-.494.057-.999.082-1.513.104-1.029.063-2.092.052-3.18.036-.542-.025-1.078-.05-1.606-.074-.527-.029-1.043-.082-1.552-.124-.509-.04-1.005-.099-1.491-.16-.485-.063-.962-.114-1.422-.188-1.846-.275-3.488-.603-4.854-.931-1.366-.326-2.459-.648-3.202-.931-.744-.283-1.14-.525-1.11-.705.03-.181.483-.283 1.277-.314.793-.031 1.926.008 3.314.095 1.388.089 3.03.22 4.845.356.454.04.918.06 1.391.096.474.034.957.07 1.448.091.491.023.991.061 1.497.08s1.019.038 1.539.057c1.037.014 2.049.044 3.023.018.488-.004.967-.005 1.433-.035.468-.02.925-.04 1.372-.059.887-.079 1.74-.114 2.525-.221.394-.047.779-.078 1.145-.126.366-.054.716-.106 1.051-.155.678-.077 1.276-.208 1.816-.29.271-.04.523-.078.755-.112.229-.044.441-.081.634-.109.772-.115 1.241-.101 1.309.069z"/><path fill="#FFF" d="m756.239 684.368c-.016.182-.249.335-.661.454-.412.121-1.002.197-1.728.223-.726.028-1.587-.006-2.537-.103-.474-.054-.972-.114-1.483-.205-.512-.084-1.038-.194-1.575-.315-.535-.13-1.055-.264-1.552-.416-.498-.145-.971-.312-1.42-.473-.895-.333-1.681-.686-2.32-1.032s-1.134-.676-1.45-.966c-.317-.289-.458-.529-.392-.7s.333-.257.754-.268c.42-.009.999.047 1.693.157.694.112 1.507.268 2.4.462.445.098.913.2 1.398.307.482.112.982.227 1.493.346.511.121 1.01.239 1.492.352.482.12.946.235 1.389.345.886.223 1.684.443 2.356.65.671.209 1.214.415 1.587.609.371.196.572.391.556.573z"/><path fill="#FFF" d="m784.758 681.207c.08.165.019.386-.167.65-.185.265-.5.561-.924.867-.423.307-.959.614-1.58.898-.312.137-.642.277-.994.395-.349.125-.719.231-1.099.331-.382.092-.758.173-1.125.228-.365.063-.723.095-1.062.122-.681.044-1.299.027-1.817-.044-.518-.069-.936-.181-1.224-.327-.289-.144-.447-.31-.455-.493-.007-.183.137-.366.397-.538.26-.171.635-.342 1.093-.509.459-.165 1.001-.334 1.6-.5.299-.082.613-.167.938-.256.326-.083.661-.174 1.007-.257.344-.091.682-.169 1.008-.25.329-.076.646-.149.948-.218.607-.137 1.164-.244 1.647-.316.483-.07.894-.096 1.204-.069.311.029.525.121.605.286z"/><path fill="#F04E23" d="m775.231 646.899c.218.347.062.916-.468 1.628-.529.71-1.44 1.555-2.717 2.384-1.272.834-2.926 1.624-4.869 2.221-.974.285-2.016.541-3.116.696-1.097.178-2.249.242-3.428.258-.589-.009-1.172-.033-1.745-.067-.571-.061-1.135-.107-1.683-.196-1.097-.174-2.142-.404-3.111-.707-.973-.286-1.869-.644-2.683-1.02-.815-.374-1.542-.785-2.182-1.193-1.278-.824-2.19-1.668-2.721-2.377-.532-.712-.689-1.28-.472-1.628.451-.711 2.235-.385 4.816.108.639.117 1.339.245 2.09.383.744.127 1.53.261 2.357.36.824.116 1.688.194 2.579.265.446.037.901.043 1.36.077.46.008.927.017 1.399.026.945-.016 1.869-.024 2.761-.099.894-.052 1.753-.156 2.579-.254 1.646-.222 3.149-.491 4.438-.747 2.576-.498 4.364-.827 4.816-.118z"/><path fill="#04294F" d="m1025.715 1818.326s-88.242-6-178.065-6c-88.736 0-179.065 6-179.065 6-14.264 0-25.935-11.67-25.935-25.935v-10.131c0-14.264 11.671-25.935 25.935-25.935 0 0 89.594-8 178.065-8 90.08 0 179.065 8 179.065 8 14.264 0 25.935 11.67 25.935 25.935v10.131c0 14.265-11.671 25.935-25.935 25.935z"/><path fill="#04294F" d="m994.281 2061.326s-76.516 0-151.478 0c-71.977 0-142.522 0-142.522 0-6.6 0-12 5.4-12 12v34c0 6.6 5.4 12 12 12 0 0 72.911-6 147-6 72.901 0 147 6 147 6 6.6 0 12-5.4 12-12v-34c0-6.6-5.4-12-12-12z"/><path fill="#04294F" d="m1008.473 2073.326s-81.459 0-162.737 0c-80.915 0-161.648 0-161.648 0-9.794 0-17.807-8.325-17.807-18.5 0-10.175 8.013-18.5 17.807-18.5 0 0 81.531-3 162.193-3 81.526 0 162.193 3 162.193 3 9.794 0 17.807 8.325 17.807 18.5 0 10.175-8.014 18.5-17.808 18.5z"/><path fill="#04294F" d="m733.757 2050.923-4.219.833c-6.475 1.277-12.818-2.976-14.096-9.451 0 0-14.357-52.208-25.162-106.979-11.062-56.077-18.577-114.748-18.577-114.748-1.277-6.476 2.975-12.818 9.451-14.096l4.219-.832c6.475-1.277 12.818 2.975 14.096 9.451 0 0 4.833 57.569 15.812 113.225 10.89 55.206 27.927 108.502 27.927 108.502 1.277 6.475-2.976 12.818-9.451 14.095z"/><path fill="#04294F" d="m959.524 2050.923 4.219.833c6.475 1.277 12.818-2.976 14.096-9.451 0 0 14.357-52.208 25.162-106.979 11.062-56.077 18.577-114.748 18.577-114.748 1.277-6.476-2.975-12.818-9.451-14.096l-4.219-.832c-6.475-1.277-12.818 2.975-14.096 9.451 0 0-4.833 57.569-15.812 113.225-10.89 55.206-27.927 108.502-27.927 108.502-1.277 6.475 2.976 12.818 9.451 14.095z"/><path fill="#04294F" d="m953.32 2031.786-.642.767c-4.239 5.059-11.846 5.729-16.905 1.49 0 0-65.594-44.522-125.492-94.717-60.583-50.769-115.478-107.216-115.478-107.216-5.059-4.239-5.729-11.847-1.49-16.905l.642-.766c4.239-5.059 11.846-5.729 16.905-1.49 0 0 56.486 57.314 117.421 108.378 59.534 49.889 123.55 93.555 123.55 93.555 5.058 4.238 5.729 11.845 1.489 16.904z"/><path fill="#04294F" d="m736.682 2034.786.642.767c4.239 5.059 11.846 5.729 16.905 1.49 0 0 65.594-44.522 125.492-94.717 60.584-50.769 115.479-107.216 115.479-107.216 5.059-4.239 5.729-11.847 1.49-16.905l-.642-.766c-4.239-5.059-11.846-5.729-16.905-1.49 0 0-56.486 57.314-117.421 108.378-59.534 49.889-123.55 93.555-123.55 93.555-5.059 4.238-5.729 11.845-1.49 16.904z"/><path fill="#04294F" d="m741 2757.665-6.727.246c-11.241.411-20.698-6.356-21.015-15.037 0 0-12.433-158.815-18.226-317.297-5.818-159.164-4.997-317.997-4.997-317.997-.317-8.682 8.62-16.121 19.861-16.532l6.727-.246c11.241-.411 20.698 6.356 21.015 15.038 0 0-.726 164.746 5.086 323.737 5.799 158.656 18.136 311.557 18.136 311.557.318 8.681-8.619 16.12-19.86 16.531z"/><path fill="#04294F" d="m956.852 2757.768 6.166.225c10.304.376 18.995-6.418 19.312-15.1 0 0 11.881-158.835 17.674-317.317 5.818-159.164 5.548-317.977 5.548-317.977.317-8.682-7.854-16.093-18.158-16.47l-6.166-.225c-10.304-.376-18.994 6.418-19.312 15.1 0 0 .164 164.726-5.648 323.716-5.799 158.656-17.575 311.578-17.575 311.578-.316 8.682 7.855 16.093 18.159 16.47z"/><path fill="#04294F" d="m1870.715 1822.326s-88.242-6-178.065-6c-88.736 0-179.065 6-179.065 6-14.264 0-25.935-11.67-25.935-25.935v-10.131c0-14.264 11.671-25.935 25.935-25.935 0 0 89.594-8 178.065-8 90.08 0 179.065 8 179.065 8 14.264 0 25.935 11.67 25.935 25.935v10.131c0 14.265-11.671 25.935-25.935 25.935z"/><path fill="#04294F" d="m1839.281 2065.326s-76.516 0-151.478 0c-71.977 0-142.522 0-142.522 0-6.6 0-12 5.4-12 12v34c0 6.6 5.4 12 12 12 0 0 72.911-6 147-6 72.901 0 147 6 147 6 6.6 0 12-5.4 12-12v-34c0-6.6-5.4-12-12-12z"/><path fill="#04294F" d="m1853.473 2077.326s-81.459 0-162.737 0c-80.915 0-161.648 0-161.648 0-9.794 0-17.807-8.325-17.807-18.5 0-10.175 8.013-18.5 17.807-18.5 0 0 81.531-3 162.193-3 81.526 0 162.193 3 162.193 3 9.794 0 17.807 8.325 17.807 18.5 0 10.175-8.014 18.5-17.808 18.5z"/><path fill="#04294F" d="m1578.757 2054.923-4.219.833c-6.475 1.277-12.818-2.976-14.096-9.451 0 0-14.358-52.208-25.162-106.979-11.062-56.077-18.577-114.748-18.577-114.748-1.277-6.476 2.976-12.818 9.451-14.096l4.219-.832c6.475-1.277 12.818 2.975 14.095 9.451 0 0 4.833 57.569 15.812 113.225 10.89 55.206 27.927 108.502 27.927 108.502 1.278 6.475-2.975 12.818-9.45 14.095z"/><path fill="#04294F" d="m1804.524 2054.923 4.219.833c6.475 1.277 12.818-2.976 14.096-9.451 0 0 14.357-52.208 25.162-106.979 11.062-56.077 18.577-114.748 18.577-114.748 1.277-6.476-2.976-12.818-9.451-14.096l-4.219-.832c-6.475-1.277-12.818 2.975-14.095 9.451 0 0-4.833 57.569-15.812 113.225-10.89 55.206-27.927 108.502-27.927 108.502-1.278 6.475 2.975 12.818 9.45 14.095z"/><path fill="#04294F" d="m1798.32 2035.786-.642.767c-4.239 5.059-11.846 5.729-16.905 1.49 0 0-65.594-44.522-125.492-94.717-60.583-50.769-115.478-107.216-115.478-107.216-5.059-4.239-5.729-11.847-1.49-16.905l.642-.766c4.239-5.059 11.846-5.729 16.905-1.49 0 0 56.486 57.314 117.421 108.378 59.534 49.889 123.55 93.555 123.55 93.555 5.058 4.238 5.729 11.845 1.489 16.904z"/><path fill="#04294F" d="m1581.682 2038.786.642.767c4.239 5.059 11.846 5.729 16.905 1.49 0 0 65.594-44.522 125.492-94.717 60.583-50.769 115.478-107.216 115.478-107.216 5.059-4.239 5.729-11.847 1.49-16.905l-.642-.766c-4.239-5.059-11.846-5.729-16.905-1.49 0 0-56.486 57.314-117.421 108.378-59.534 49.889-123.55 93.555-123.55 93.555-5.058 4.238-5.728 11.845-1.489 16.904z"/><path fill="#04294F" d="m1586 2761.665-6.726.246c-11.241.411-20.698-6.356-21.015-15.037 0 0-12.432-158.815-18.226-317.297-5.818-159.164-4.997-317.997-4.997-317.997-.317-8.682 8.62-16.121 19.861-16.532l6.727-.246c11.241-.411 20.698 6.356 21.015 15.038 0 0-.726 164.746 5.086 323.737 5.799 158.656 18.136 311.557 18.136 311.557.317 8.681-8.62 16.12-19.861 16.531z"/><path fill="#04294F" d="m1801.852 2761.768 6.166.225c10.304.376 18.995-6.418 19.312-15.1 0 0 11.881-158.835 17.674-317.317 5.818-159.164 5.548-317.977 5.548-317.977.317-8.682-7.854-16.093-18.158-16.47l-6.166-.225c-10.304-.376-18.995 6.418-19.312 15.1 0 0 .164 164.726-5.648 323.716-5.799 158.656-17.574 311.578-17.574 311.578-.317 8.682 7.854 16.093 18.158 16.47z"/><path fill="#04294F" d="m2725.715 1818.326s-88.242-6-178.065-6c-88.736 0-179.065 6-179.065 6-14.264 0-25.935-11.67-25.935-25.935v-10.131c0-14.264 11.671-25.935 25.935-25.935 0 0 89.594-8 178.065-8 90.08 0 179.065 8 179.065 8 14.264 0 25.935 11.67 25.935 25.935v10.131c0 14.265-11.671 25.935-25.935 25.935z"/><path fill="#04294F" d="m2694.281 2061.326s-76.516 0-151.478 0c-71.977 0-142.522 0-142.522 0-6.6 0-12 5.4-12 12v34c0 6.6 5.4 12 12 12 0 0 72.911-6 147-6 72.901 0 147 6 147 6 6.6 0 12-5.4 12-12v-34c0-6.6-5.4-12-12-12z"/><path fill="#04294F" d="m2708.473 2073.326s-81.459 0-162.737 0c-80.915 0-161.648 0-161.648 0-9.794 0-17.808-8.325-17.808-18.5 0-10.175 8.013-18.5 17.808-18.5 0 0 81.531-3 162.192-3 81.527 0 162.193 3 162.193 3 9.794 0 17.807 8.325 17.807 18.5.001 10.175-8.013 18.5-17.807 18.5z"/><path fill="#04294F" d="m2433.757 2050.923-4.219.833c-6.475 1.277-12.818-2.976-14.095-9.451 0 0-14.358-52.208-25.162-106.979-11.062-56.077-18.577-114.748-18.577-114.748-1.277-6.476 2.975-12.818 9.451-14.096l4.219-.832c6.475-1.277 12.818 2.975 14.095 9.451 0 0 4.833 57.569 15.812 113.225 10.89 55.206 27.927 108.502 27.927 108.502 1.277 6.475-2.976 12.818-9.451 14.095z"/><path fill="#04294F" d="m2659.524 2050.923 4.219.833c6.475 1.277 12.818-2.976 14.095-9.451 0 0 14.357-52.208 25.162-106.979 11.062-56.077 18.577-114.748 18.577-114.748 1.277-6.476-2.976-12.818-9.451-14.096l-4.219-.832c-6.475-1.277-12.818 2.975-14.096 9.451 0 0-4.833 57.569-15.812 113.225-10.89 55.206-27.927 108.502-27.927 108.502-1.276 6.475 2.977 12.818 9.452 14.095z"/><path fill="#04294F" d="m2653.32 2031.786-.642.767c-4.239 5.059-11.846 5.729-16.905 1.49 0 0-65.594-44.522-125.493-94.717-60.583-50.769-115.478-107.216-115.478-107.216-5.059-4.239-5.729-11.847-1.49-16.905l.642-.766c4.239-5.059 11.846-5.729 16.905-1.49 0 0 56.486 57.314 117.421 108.378 59.534 49.889 123.55 93.555 123.55 93.555 5.059 4.238 5.73 11.845 1.49 16.904z"/><path fill="#04294F" d="m2436.682 2034.786.642.767c4.239 5.059 11.846 5.729 16.905 1.49 0 0 65.594-44.522 125.493-94.717 60.583-50.769 115.478-107.216 115.478-107.216 5.059-4.239 5.729-11.847 1.49-16.905l-.642-.766c-4.239-5.059-11.846-5.729-16.905-1.49 0 0-56.486 57.314-117.421 108.378-59.534 49.889-123.55 93.555-123.55 93.555-5.059 4.238-5.729 11.845-1.49 16.904z"/><path fill="#04294F" d="m2441 2757.665-6.727.246c-11.241.411-20.698-6.356-21.015-15.037 0 0-12.432-158.815-18.226-317.297-5.818-159.164-4.997-317.997-4.997-317.997-.317-8.682 8.62-16.121 19.861-16.532l6.727-.246c11.241-.411 20.698 6.356 21.015 15.038 0 0-.726 164.746 5.086 323.737 5.799 158.656 18.136 311.557 18.136 311.557.318 8.681-8.619 16.12-19.86 16.531z"/><path fill="#04294F" d="m2656.852 2757.768 6.166.225c10.304.376 18.994-6.418 19.312-15.1 0 0 11.881-158.835 17.674-317.317 5.818-159.164 5.548-317.977 5.548-317.977.317-8.682-7.854-16.093-18.158-16.47l-6.166-.225c-10.304-.376-18.995 6.418-19.312 15.1 0 0 .164 164.726-5.648 323.716-5.799 158.656-17.574 311.578-17.574 311.578-.317 8.682 7.854 16.093 18.158 16.47z"/></svg>